<svg xmlns="http://www.w3.org/2000/svg" xmlns:xlink="http://www.w3.org/1999/xlink" width="76" zoomAndPan="magnify" viewBox="0 0 56.879997 56.999997" height="76" preserveAspectRatio="xMidYMid meet" version="1.0"><defs><clipPath id="9c9713a755"><path d="M 0 0.0585938 L 56.761719 0.0585938 L 56.761719 56.9375 L 0 56.9375 Z M 0 0.0585938 " clip-rule="nonzero"/></clipPath><clipPath id="d990cb7c5b"><path d="M 0 0.0585938 L 56.761719 0.0585938 L 56.761719 56.9375 L 0 56.9375 Z M 0 0.0585938 " clip-rule="nonzero"/></clipPath><clipPath id="005d3d4225"><path d="M 28.441406 0.0585938 C 12.734375 0.0585938 0 12.792969 0 28.5 C 0 44.207031 12.734375 56.941406 28.441406 56.941406 C 44.148438 56.941406 56.878906 44.207031 56.878906 28.5 C 56.878906 12.792969 44.148438 0.0585938 28.441406 0.0585938 " clip-rule="nonzero"/></clipPath><clipPath id="c6a8222d4f"><path d="M 16.265625 20.417969 L 40.964844 20.417969 L 40.964844 36.886719 L 16.265625 36.886719 Z M 16.265625 20.417969 " clip-rule="nonzero"/></clipPath></defs><g clip-path="url(#9c9713a755)"><path fill="#e4e4e4" d="M 56.878906 28.5 C 56.878906 29.429688 56.835938 30.359375 56.742188 31.289062 C 56.652344 32.214844 56.515625 33.136719 56.332031 34.046875 C 56.152344 34.960938 55.925781 35.863281 55.65625 36.753906 C 55.386719 37.648438 55.070312 38.523438 54.714844 39.382812 C 54.359375 40.242188 53.960938 41.085938 53.523438 41.90625 C 53.082031 42.726562 52.605469 43.527344 52.085938 44.300781 C 51.570312 45.074219 51.015625 45.820312 50.425781 46.542969 C 49.832031 47.261719 49.207031 47.953125 48.550781 48.609375 C 47.890625 49.269531 47.203125 49.894531 46.480469 50.484375 C 45.761719 51.074219 45.015625 51.628906 44.242188 52.148438 C 43.464844 52.664062 42.667969 53.144531 41.847656 53.582031 C 41.023438 54.019531 40.183594 54.417969 39.324219 54.773438 C 38.464844 55.132812 37.585938 55.445312 36.695312 55.714844 C 35.804688 55.984375 34.902344 56.210938 33.988281 56.394531 C 33.074219 56.574219 32.15625 56.710938 31.226562 56.804688 C 30.300781 56.894531 29.371094 56.941406 28.441406 56.941406 C 27.507812 56.941406 26.578125 56.894531 25.652344 56.804688 C 24.726562 56.710938 23.804688 56.574219 22.890625 56.394531 C 21.976562 56.210938 21.074219 55.984375 20.183594 55.714844 C 19.292969 55.445312 18.417969 55.132812 17.554688 54.773438 C 16.695312 54.417969 15.855469 54.019531 15.035156 53.582031 C 14.210938 53.144531 13.414062 52.664062 12.640625 52.148438 C 11.863281 51.628906 11.117188 51.074219 10.398438 50.484375 C 9.679688 49.894531 8.988281 49.269531 8.328125 48.609375 C 7.671875 47.953125 7.046875 47.261719 6.457031 46.542969 C 5.863281 45.820312 5.308594 45.074219 4.792969 44.300781 C 4.277344 43.527344 3.796875 42.726562 3.359375 41.90625 C 2.917969 41.085938 2.519531 40.242188 2.164062 39.382812 C 1.808594 38.523438 1.496094 37.648438 1.226562 36.753906 C 0.953125 35.863281 0.726562 34.960938 0.546875 34.046875 C 0.363281 33.136719 0.226562 32.214844 0.136719 31.289062 C 0.046875 30.359375 0 29.429688 0 28.5 C 0 27.570312 0.046875 26.640625 0.136719 25.710938 C 0.226562 24.785156 0.363281 23.863281 0.546875 22.953125 C 0.726562 22.039062 0.953125 21.136719 1.226562 20.246094 C 1.496094 19.351562 1.808594 18.476562 2.164062 17.617188 C 2.519531 16.757812 2.917969 15.914062 3.359375 15.09375 C 3.796875 14.273438 4.277344 13.472656 4.792969 12.699219 C 5.308594 11.925781 5.863281 11.179688 6.457031 10.457031 C 7.046875 9.738281 7.671875 9.046875 8.328125 8.390625 C 8.988281 7.730469 9.679688 7.105469 10.398438 6.515625 C 11.117188 5.925781 11.863281 5.371094 12.640625 4.851562 C 13.414062 4.335938 14.210938 3.855469 15.035156 3.417969 C 15.855469 2.980469 16.695312 2.582031 17.554688 2.226562 C 18.417969 1.867188 19.292969 1.554688 20.183594 1.285156 C 21.074219 1.015625 21.976562 0.789062 22.890625 0.605469 C 23.804688 0.425781 24.726562 0.289062 25.652344 0.195312 C 26.578125 0.105469 27.507812 0.0585938 28.441406 0.0585938 C 29.371094 0.0585938 30.300781 0.105469 31.226562 0.195312 C 32.15625 0.289062 33.074219 0.425781 33.988281 0.605469 C 34.902344 0.789062 35.804688 1.015625 36.695312 1.285156 C 37.585938 1.554688 38.464844 1.867188 39.324219 2.226562 C 40.183594 2.582031 41.023438 2.980469 41.847656 3.417969 C 42.667969 3.855469 43.464844 4.335938 44.242188 4.851562 C 45.015625 5.371094 45.761719 5.925781 46.480469 6.515625 C 47.203125 7.105469 47.890625 7.730469 48.550781 8.390625 C 49.207031 9.046875 49.832031 9.738281 50.425781 10.457031 C 51.015625 11.179688 51.570312 11.925781 52.085938 12.699219 C 52.605469 13.472656 53.082031 14.273438 53.523438 15.09375 C 53.960938 15.914062 54.359375 16.757812 54.714844 17.617188 C 55.070312 18.476562 55.386719 19.351562 55.65625 20.246094 C 55.925781 21.136719 56.152344 22.039062 56.332031 22.953125 C 56.515625 23.863281 56.652344 24.785156 56.742188 25.710938 C 56.835938 26.640625 56.878906 27.570312 56.878906 28.5 Z M 56.878906 28.5 " fill-opacity="1" fill-rule="nonzero"/></g><path fill="#000000" d="M 36.546875 18.273438 C 34.140625 18.273438 32.183594 20.230469 32.183594 22.636719 C 32.183594 22.980469 32.460938 23.261719 32.804688 23.261719 C 33.152344 23.261719 33.429688 22.980469 33.429688 22.636719 C 33.429688 20.917969 34.828125 19.519531 36.546875 19.519531 C 36.894531 19.519531 37.171875 19.238281 37.171875 18.894531 C 37.171875 18.550781 36.894531 18.273438 36.546875 18.273438 Z M 36.546875 18.273438 " fill-opacity="1" fill-rule="nonzero"/><path fill="#000000" d="M 21.320312 23.625 C 20.835938 24.113281 20.835938 24.902344 21.320312 25.390625 C 21.5625 25.632812 21.882812 25.753906 22.203125 25.753906 C 22.523438 25.753906 22.84375 25.632812 23.085938 25.390625 C 23.570312 24.902344 23.570312 24.113281 23.085938 23.625 C 22.597656 23.140625 21.808594 23.140625 21.320312 23.625 Z M 21.320312 23.625 " fill-opacity="1" fill-rule="nonzero"/><path fill="#000000" d="M 33.796875 37.863281 C 34.039062 38.105469 34.359375 38.230469 34.675781 38.230469 C 34.996094 38.230469 35.316406 38.105469 35.558594 37.863281 C 36.046875 37.378906 36.046875 36.585938 35.558594 36.101562 C 35.074219 35.613281 34.28125 35.613281 33.796875 36.101562 C 33.308594 36.585938 33.308594 37.378906 33.796875 37.863281 Z M 33.796875 37.863281 " fill-opacity="1" fill-rule="nonzero"/><path fill="#000000" d="M 41.398438 17.785156 C 39.671875 16.058594 37.195312 15.386719 34.773438 16 C 31.84375 16.738281 29.800781 19.429688 29.683594 22.699219 C 29.671875 23.039062 29.566406 23.398438 29.394531 23.761719 C 25.953125 21.050781 22.585938 19.5 20.3125 19.519531 C 19.371094 19.546875 18.617188 19.835938 18.070312 20.378906 C 17.527344 20.921875 17.238281 21.679688 17.210938 22.621094 C 17.160156 24.503906 18.183594 27.035156 19.96875 29.710938 C 18.40625 30.019531 16.964844 30.75 15.84375 31.875 C 12.679688 35.035156 12.679688 40.179688 15.84375 43.34375 C 17.421875 44.921875 19.5 45.714844 21.578125 45.714844 C 23.652344 45.714844 25.730469 44.921875 27.3125 43.34375 C 28.433594 42.21875 29.167969 40.777344 29.472656 39.214844 C 32.085938 40.957031 34.558594 41.972656 36.425781 41.972656 C 36.472656 41.972656 36.519531 41.972656 36.566406 41.972656 C 37.507812 41.949219 38.261719 41.660156 38.804688 41.113281 C 39.351562 40.570312 39.640625 39.816406 39.664062 38.875 C 39.726562 36.59375 38.140625 33.234375 35.425781 29.792969 C 35.785156 29.621094 36.144531 29.511719 36.484375 29.5 C 39.753906 29.386719 42.449219 27.339844 43.1875 24.410156 C 43.796875 21.988281 43.128906 19.511719 41.398438 17.785156 Z M 26.429688 42.457031 C 23.753906 45.132812 19.402344 45.132812 16.726562 42.457031 C 14.050781 39.78125 14.050781 35.429688 16.726562 32.753906 C 17.804688 31.675781 19.230469 30.996094 20.761719 30.820312 C 21.050781 31.214844 21.351562 31.605469 21.671875 32 C 18.558594 31.914062 15.964844 34.480469 15.964844 37.605469 C 15.964844 40.699219 18.484375 43.21875 21.578125 43.21875 C 24.675781 43.21875 27.191406 40.699219 27.191406 37.605469 C 27.191406 37.578125 27.183594 37.546875 27.183594 37.515625 C 27.578125 37.835938 27.96875 38.132812 28.363281 38.421875 C 28.1875 39.957031 27.507812 41.378906 26.429688 42.457031 Z M 25.71875 36.273438 C 25.871094 36.730469 25.945312 37.167969 25.945312 37.605469 C 25.945312 40.011719 23.984375 41.972656 21.578125 41.972656 C 19.171875 41.972656 17.214844 40.011719 17.214844 37.605469 C 17.214844 35.199219 19.171875 33.238281 21.578125 33.238281 C 22.015625 33.238281 22.453125 33.3125 22.914062 33.464844 C 23.347656 33.949219 23.800781 34.429688 24.277344 34.90625 C 24.277344 34.90625 24.277344 34.90625 24.277344 34.910156 C 24.753906 35.382812 25.234375 35.835938 25.71875 36.273438 Z M 38.417969 38.835938 C 38.402344 39.449219 38.234375 39.917969 37.921875 40.230469 C 37.613281 40.539062 37.144531 40.707031 36.53125 40.722656 C 34.746094 40.78125 32.136719 39.605469 29.398438 37.636719 C 29.390625 37.628906 29.386719 37.621094 29.378906 37.613281 C 28.683594 37.113281 28.003906 36.578125 27.335938 36.019531 C 27.265625 35.957031 27.191406 35.898438 27.117188 35.832031 C 26.445312 35.257812 25.789062 34.65625 25.160156 34.027344 C 24.527344 33.394531 23.925781 32.734375 23.347656 32.0625 C 23.289062 31.992188 23.234375 31.925781 23.175781 31.855469 C 22.613281 31.1875 22.074219 30.503906 21.570312 29.804688 C 21.566406 29.796875 21.554688 29.796875 21.550781 29.789062 C 19.585938 27.054688 18.414062 24.453125 18.460938 22.65625 C 18.476562 22.042969 18.644531 21.574219 18.957031 21.261719 C 19.265625 20.949219 19.734375 20.785156 20.347656 20.765625 C 22.347656 20.691406 25.515625 22.261719 28.726562 24.820312 C 28.214844 25.480469 27.5625 26.105469 26.929688 26.605469 C 26.257812 27.140625 26.042969 28.097656 26.421875 28.882812 C 26.734375 29.527344 27.261719 30.449219 28 31.1875 C 28.734375 31.921875 29.65625 32.449219 30.304688 32.761719 C 30.5625 32.890625 30.839844 32.949219 31.117188 32.949219 C 31.675781 32.949219 32.21875 32.703125 32.578125 32.253906 C 33.078125 31.625 33.707031 30.972656 34.367188 30.457031 C 36.921875 33.671875 38.472656 36.847656 38.417969 38.835938 Z M 41.976562 24.105469 C 41.375 26.488281 39.148438 28.15625 36.441406 28.253906 C 34.265625 28.328125 32.1875 30.742188 31.601562 31.476562 C 31.425781 31.699219 31.109375 31.769531 30.847656 31.640625 C 30.289062 31.371094 29.492188 30.917969 28.878906 30.304688 C 28.269531 29.691406 27.816406 28.894531 27.542969 28.335938 C 27.417969 28.074219 27.484375 27.757812 27.707031 27.582031 C 28.445312 26.996094 30.855469 24.917969 30.933594 22.746094 C 31.027344 20.035156 32.695312 17.808594 35.078125 17.210938 C 35.566406 17.085938 36.054688 17.027344 36.535156 17.027344 C 38.027344 17.027344 39.449219 17.601562 40.515625 18.667969 C 41.929688 20.082031 42.476562 22.113281 41.976562 24.105469 Z M 41.976562 24.105469 " fill-opacity="1" fill-rule="nonzero"/><g clip-path="url(#d990cb7c5b)"><g clip-path="url(#005d3d4225)"><path fill="#e4e4e4" d="M 0 0.0585938 L 56.878906 0.0585938 L 56.878906 56.941406 L 0 56.941406 Z M 0 0.0585938 " fill-opacity="1" fill-rule="nonzero"/></g></g><g clip-path="url(#c6a8222d4f)"><path fill="#000000" d="M 38.019531 32.023438 C 37.347656 32.25 36.660156 32.433594 35.964844 32.582031 C 35.53125 32.675781 35.714844 33.347656 36.152344 33.253906 C 36.84375 33.101562 37.53125 32.921875 38.207031 32.695312 C 38.625 32.554688 38.445312 31.882812 38.019531 32.023438 Z M 33.234375 33.007812 C 32.507812 33.085938 31.78125 33.140625 31.054688 33.175781 C 30.269531 33.214844 29.464844 33.164062 28.683594 33.234375 C 28.53125 33.25 28.558594 33.253906 28.773438 33.246094 C 28.6875 33.230469 28.601562 33.226562 28.511719 33.234375 C 28.292969 33.226562 28.070312 33.230469 27.851562 33.226562 C 27.433594 33.21875 27.015625 33.207031 26.601562 33.191406 C 25.898438 33.160156 25.199219 33.113281 24.5 33.046875 C 22.582031 32.863281 20.640625 32.535156 18.835938 31.839844 C 18.417969 31.675781 18.238281 32.351562 18.652344 32.511719 C 20.453125 33.207031 22.390625 33.53125 24.304688 33.722656 C 27.265625 34.023438 30.273438 34.015625 33.234375 33.707031 C 33.671875 33.660156 33.675781 32.960938 33.234375 33.007812 Z M 40.242188 30.972656 C 40.242188 29.558594 39.898438 28.152344 39.265625 26.890625 C 38.695312 25.757812 37.914062 24.75 36.980469 23.898438 C 36.511719 23.472656 36.007812 23.089844 35.472656 22.753906 C 35.191406 22.578125 34.902344 22.414062 34.609375 22.261719 C 34.480469 22.195312 34.347656 22.132812 34.21875 22.070312 C 34.199219 22.0625 34.183594 22.054688 34.167969 22.046875 C 34.023438 22.183594 33.6875 22.433594 33.625 22.492188 C 33.265625 22.824219 32.921875 23.171875 32.582031 23.523438 C 31.839844 24.308594 31.089844 25.136719 30.570312 26.089844 C 30.371094 26.457031 29.871094 26.1875 29.9375 25.820312 C 30.21875 24.242188 30.800781 22.667969 31.582031 21.261719 C 30.664062 21.117188 29.742188 21.117188 28.808594 21.117188 C 28.582031 21.3125 28.359375 21.507812 28.136719 21.710938 C 28.113281 21.742188 28.082031 21.773438 28.046875 21.796875 C 27.695312 22.117188 27.351562 22.441406 27.015625 22.773438 C 26 23.769531 24.9375 24.828125 24.253906 26.089844 C 24.097656 26.378906 23.578125 26.261719 23.609375 25.914062 C 23.742188 24.34375 24.296875 22.742188 25.132812 21.390625 C 24.902344 21.445312 24.671875 21.503906 24.445312 21.574219 C 20.429688 22.808594 17.054688 26.617188 17.121094 30.972656 C 17.121094 31.027344 17.125 31.074219 17.125 31.121094 C 17.125 31.136719 17.125 31.144531 17.125 31.152344 C 17.128906 31.15625 17.128906 31.167969 17.132812 31.1875 C 17.167969 31.371094 17.21875 31.550781 17.28125 31.730469 C 17.351562 31.933594 17.492188 32.214844 17.648438 32.460938 C 17.855469 32.785156 18.105469 33.074219 18.382812 33.34375 C 19.234375 34.160156 20.324219 34.707031 21.429688 35.085938 C 23.363281 35.753906 25.429688 35.988281 27.464844 36.054688 C 29.800781 36.136719 32.183594 36.039062 34.46875 35.507812 C 35.84375 35.183594 37.214844 34.699219 38.367188 33.859375 C 39.007812 33.394531 39.566406 32.800781 39.925781 32.09375 C 40.039062 31.871094 40.097656 31.726562 40.171875 31.449219 C 40.195312 31.367188 40.210938 31.285156 40.230469 31.199219 C 40.230469 31.195312 40.230469 31.179688 40.234375 31.164062 C 40.234375 31.140625 40.242188 31.003906 40.242188 30.972656 Z M 26.15625 21.722656 C 26.058594 21.660156 25.96875 21.582031 25.886719 21.496094 C 25.324219 22.347656 24.875 23.320312 24.59375 24.324219 C 25.261719 23.472656 26.050781 22.6875 26.847656 21.949219 C 26.605469 21.921875 26.371094 21.855469 26.15625 21.722656 Z M 32.128906 21.707031 C 31.710938 22.480469 31.351562 23.300781 31.078125 24.144531 C 31.535156 23.59375 32.039062 23.074219 32.535156 22.578125 C 32.652344 22.460938 32.769531 22.34375 32.886719 22.230469 C 32.59375 22.125 32.332031 21.945312 32.128906 21.707031 Z M 40.933594 30.972656 C 40.933594 31.109375 40.921875 31.238281 40.898438 31.371094 C 40.632812 32.925781 39.335938 34.152344 38.035156 34.902344 C 36.554688 35.757812 34.859375 36.203125 33.179688 36.457031 C 30.605469 36.851562 27.9375 36.882812 25.347656 36.609375 C 22.566406 36.3125 19.226562 35.601562 17.378906 33.273438 C 16.339844 31.957031 16.296875 30.6875 16.621094 29.0625 C 17.5 24.648438 21.402344 21.265625 25.753906 20.558594 C 25.839844 20.507812 25.953125 20.507812 26.066406 20.585938 C 26.234375 20.703125 26.277344 20.914062 26.414062 21.042969 C 26.746094 21.363281 27.277344 21.277344 27.6875 21.179688 C 27.722656 21.152344 27.753906 21.121094 27.785156 21.09375 C 27.976562 20.921875 28.167969 20.75 28.363281 20.585938 C 28.535156 20.4375 28.6875 20.417969 28.90625 20.417969 C 30.027344 20.417969 31.121094 20.441406 32.222656 20.671875 C 32.335938 20.695312 32.417969 20.785156 32.453125 20.890625 C 32.457031 20.898438 32.460938 20.90625 32.464844 20.914062 C 32.496094 21.011719 32.457031 20.921875 32.503906 21.003906 C 32.550781 21.101562 32.609375 21.199219 32.679688 21.28125 C 32.90625 21.550781 33.203125 21.644531 33.535156 21.636719 C 33.539062 21.632812 33.542969 21.628906 33.546875 21.625 C 33.777344 21.429688 33.964844 21.234375 34.28125 21.34375 C 35.554688 21.777344 36.785156 22.730469 37.738281 23.65625 C 39.703125 25.566406 40.933594 28.210938 40.933594 30.972656 Z M 20.242188 27.445312 C 20.6875 27.445312 20.6875 26.746094 20.242188 26.746094 C 19.796875 26.746094 19.796875 27.445312 20.242188 27.445312 Z M 21.632812 30.019531 C 22.078125 30.019531 22.078125 29.320312 21.632812 29.320312 C 21.183594 29.320312 21.183594 30.019531 21.632812 30.019531 Z M 26.082031 30.019531 C 26.527344 30.019531 26.527344 29.320312 26.082031 29.320312 C 25.636719 29.320312 25.636719 30.019531 26.082031 30.019531 Z M 25.367188 34.882812 C 25.816406 34.882812 25.816406 34.1875 25.367188 34.1875 C 24.921875 34.1875 24.921875 34.882812 25.367188 34.882812 Z M 32.902344 35.121094 C 33.347656 35.121094 33.347656 34.421875 32.902344 34.421875 C 32.457031 34.421875 32.453125 35.121094 32.902344 35.121094 Z M 32.902344 35.121094 C 33.347656 35.121094 33.347656 34.421875 32.902344 34.421875 C 32.457031 34.421875 32.453125 35.121094 32.902344 35.121094 Z M 27.703125 32.988281 C 28.148438 32.988281 28.148438 32.289062 27.703125 32.289062 C 27.257812 32.289062 27.253906 32.988281 27.703125 32.988281 Z M 38.738281 29.5625 C 39.183594 29.5625 39.183594 28.867188 38.738281 28.867188 C 38.292969 28.867188 38.289062 29.5625 38.738281 29.5625 Z M 36.753906 27.207031 C 37.199219 27.207031 37.199219 26.511719 36.753906 26.511719 C 36.304688 26.511719 36.304688 27.207031 36.753906 27.207031 Z M 35.59375 29.5625 C 35.148438 29.5625 35.148438 28.867188 35.59375 28.867188 C 36.042969 28.867188 36.042969 29.5625 35.59375 29.5625 " fill-opacity="1" fill-rule="nonzero"/></g></svg>