<svg xmlns="http://www.w3.org/2000/svg" xmlns:xlink="http://www.w3.org/1999/xlink" width="76" zoomAndPan="magnify" viewBox="0 0 56.879997 56.999997" height="76" preserveAspectRatio="xMidYMid meet" version="1.0"><defs><clipPath id="317dd16371"><path d="M 0 0.0585938 L 56.761719 0.0585938 L 56.761719 56.9375 L 0 56.9375 Z M 0 0.0585938 " clip-rule="nonzero"/></clipPath><clipPath id="605c93c88a"><path d="M 0 0.0585938 L 56.761719 0.0585938 L 56.761719 56.9375 L 0 56.9375 Z M 0 0.0585938 " clip-rule="nonzero"/></clipPath><clipPath id="be0a236837"><path d="M 28.441406 0.0585938 C 12.734375 0.0585938 0 12.792969 0 28.5 C 0 44.207031 12.734375 56.941406 28.441406 56.941406 C 44.148438 56.941406 56.878906 44.207031 56.878906 28.5 C 56.878906 12.792969 44.148438 0.0585938 28.441406 0.0585938 " clip-rule="nonzero"/></clipPath><clipPath id="a6ea190d74"><path d="M 13.039062 17.894531 L 43.722656 17.894531 L 43.722656 38.847656 L 13.039062 38.847656 Z M 13.039062 17.894531 " clip-rule="nonzero"/></clipPath><clipPath id="d3664ca47a"><path d="M 13.039062 29 L 16 29 L 16 31 L 13.039062 31 Z M 13.039062 29 " clip-rule="nonzero"/></clipPath></defs><g clip-path="url(#317dd16371)"><path fill="#e4e4e4" d="M 56.878906 28.5 C 56.878906 29.429688 56.835938 30.359375 56.742188 31.289062 C 56.652344 32.214844 56.515625 33.136719 56.332031 34.046875 C 56.152344 34.960938 55.925781 35.863281 55.65625 36.753906 C 55.386719 37.648438 55.070312 38.523438 54.714844 39.382812 C 54.359375 40.242188 53.960938 41.085938 53.523438 41.90625 C 53.082031 42.726562 52.605469 43.527344 52.085938 44.300781 C 51.570312 45.074219 51.015625 45.820312 50.425781 46.542969 C 49.832031 47.261719 49.207031 47.953125 48.550781 48.609375 C 47.890625 49.269531 47.203125 49.894531 46.480469 50.484375 C 45.761719 51.074219 45.015625 51.628906 44.242188 52.148438 C 43.464844 52.664062 42.667969 53.144531 41.847656 53.582031 C 41.023438 54.019531 40.183594 54.417969 39.324219 54.773438 C 38.464844 55.132812 37.585938 55.445312 36.695312 55.714844 C 35.804688 55.984375 34.902344 56.210938 33.988281 56.394531 C 33.074219 56.574219 32.15625 56.710938 31.226562 56.804688 C 30.300781 56.894531 29.371094 56.941406 28.441406 56.941406 C 27.507812 56.941406 26.578125 56.894531 25.652344 56.804688 C 24.726562 56.710938 23.804688 56.574219 22.890625 56.394531 C 21.976562 56.210938 21.074219 55.984375 20.183594 55.714844 C 19.292969 55.445312 18.417969 55.132812 17.554688 54.773438 C 16.695312 54.417969 15.855469 54.019531 15.035156 53.582031 C 14.210938 53.144531 13.414062 52.664062 12.640625 52.148438 C 11.863281 51.628906 11.117188 51.074219 10.398438 50.484375 C 9.679688 49.894531 8.988281 49.269531 8.328125 48.609375 C 7.671875 47.953125 7.046875 47.261719 6.457031 46.542969 C 5.863281 45.820312 5.308594 45.074219 4.792969 44.300781 C 4.277344 43.527344 3.796875 42.726562 3.359375 41.90625 C 2.917969 41.085938 2.519531 40.242188 2.164062 39.382812 C 1.808594 38.523438 1.496094 37.648438 1.226562 36.753906 C 0.953125 35.863281 0.726562 34.960938 0.546875 34.046875 C 0.363281 33.136719 0.226562 32.214844 0.136719 31.289062 C 0.046875 30.359375 0 29.429688 0 28.5 C 0 27.570312 0.046875 26.640625 0.136719 25.710938 C 0.226562 24.785156 0.363281 23.863281 0.546875 22.953125 C 0.726562 22.039062 0.953125 21.136719 1.226562 20.246094 C 1.496094 19.351562 1.808594 18.476562 2.164062 17.617188 C 2.519531 16.757812 2.917969 15.914062 3.359375 15.09375 C 3.796875 14.273438 4.277344 13.472656 4.792969 12.699219 C 5.308594 11.925781 5.863281 11.179688 6.457031 10.457031 C 7.046875 9.738281 7.671875 9.046875 8.328125 8.390625 C 8.988281 7.730469 9.679688 7.105469 10.398438 6.515625 C 11.117188 5.925781 11.863281 5.371094 12.640625 4.851562 C 13.414062 4.335938 14.210938 3.855469 15.035156 3.417969 C 15.855469 2.980469 16.695312 2.582031 17.554688 2.226562 C 18.417969 1.867188 19.292969 1.554688 20.183594 1.285156 C 21.074219 1.015625 21.976562 0.789062 22.890625 0.605469 C 23.804688 0.425781 24.726562 0.289062 25.652344 0.195312 C 26.578125 0.105469 27.507812 0.0585938 28.441406 0.0585938 C 29.371094 0.0585938 30.300781 0.105469 31.226562 0.195312 C 32.15625 0.289062 33.074219 0.425781 33.988281 0.605469 C 34.902344 0.789062 35.804688 1.015625 36.695312 1.285156 C 37.585938 1.554688 38.464844 1.867188 39.324219 2.226562 C 40.183594 2.582031 41.023438 2.980469 41.847656 3.417969 C 42.667969 3.855469 43.464844 4.335938 44.242188 4.851562 C 45.015625 5.371094 45.761719 5.925781 46.480469 6.515625 C 47.203125 7.105469 47.890625 7.730469 48.550781 8.390625 C 49.207031 9.046875 49.832031 9.738281 50.425781 10.457031 C 51.015625 11.179688 51.570312 11.925781 52.085938 12.699219 C 52.605469 13.472656 53.082031 14.273438 53.523438 15.09375 C 53.960938 15.914062 54.359375 16.757812 54.714844 17.617188 C 55.070312 18.476562 55.386719 19.351562 55.65625 20.246094 C 55.925781 21.136719 56.152344 22.039062 56.332031 22.953125 C 56.515625 23.863281 56.652344 24.785156 56.742188 25.710938 C 56.835938 26.640625 56.878906 27.570312 56.878906 28.5 Z M 56.878906 28.5 " fill-opacity="1" fill-rule="nonzero"/></g><path fill="#000000" d="M 36.546875 18.273438 C 34.140625 18.273438 32.183594 20.230469 32.183594 22.636719 C 32.183594 22.980469 32.460938 23.261719 32.804688 23.261719 C 33.152344 23.261719 33.429688 22.980469 33.429688 22.636719 C 33.429688 20.917969 34.828125 19.519531 36.546875 19.519531 C 36.894531 19.519531 37.171875 19.238281 37.171875 18.894531 C 37.171875 18.550781 36.894531 18.273438 36.546875 18.273438 Z M 36.546875 18.273438 " fill-opacity="1" fill-rule="nonzero"/><path fill="#000000" d="M 21.320312 23.625 C 20.835938 24.113281 20.835938 24.902344 21.320312 25.390625 C 21.5625 25.632812 21.882812 25.753906 22.203125 25.753906 C 22.523438 25.753906 22.84375 25.632812 23.085938 25.390625 C 23.570312 24.902344 23.570312 24.113281 23.085938 23.625 C 22.597656 23.140625 21.808594 23.140625 21.320312 23.625 Z M 21.320312 23.625 " fill-opacity="1" fill-rule="nonzero"/><path fill="#000000" d="M 33.796875 37.863281 C 34.039062 38.105469 34.359375 38.230469 34.675781 38.230469 C 34.996094 38.230469 35.316406 38.105469 35.558594 37.863281 C 36.046875 37.378906 36.046875 36.585938 35.558594 36.101562 C 35.074219 35.613281 34.28125 35.613281 33.796875 36.101562 C 33.308594 36.585938 33.308594 37.378906 33.796875 37.863281 Z M 33.796875 37.863281 " fill-opacity="1" fill-rule="nonzero"/><path fill="#000000" d="M 41.398438 17.785156 C 39.671875 16.058594 37.195312 15.386719 34.773438 16 C 31.84375 16.738281 29.800781 19.429688 29.683594 22.699219 C 29.671875 23.039062 29.566406 23.398438 29.394531 23.761719 C 25.953125 21.050781 22.585938 19.5 20.3125 19.519531 C 19.371094 19.546875 18.617188 19.835938 18.070312 20.378906 C 17.527344 20.921875 17.238281 21.679688 17.210938 22.621094 C 17.160156 24.503906 18.183594 27.035156 19.96875 29.710938 C 18.40625 30.019531 16.964844 30.75 15.84375 31.875 C 12.679688 35.035156 12.679688 40.179688 15.84375 43.34375 C 17.421875 44.921875 19.5 45.714844 21.578125 45.714844 C 23.652344 45.714844 25.730469 44.921875 27.3125 43.34375 C 28.433594 42.21875 29.167969 40.777344 29.472656 39.214844 C 32.085938 40.957031 34.558594 41.972656 36.425781 41.972656 C 36.472656 41.972656 36.519531 41.972656 36.566406 41.972656 C 37.507812 41.949219 38.261719 41.660156 38.804688 41.113281 C 39.351562 40.570312 39.640625 39.816406 39.664062 38.875 C 39.726562 36.59375 38.140625 33.234375 35.425781 29.792969 C 35.785156 29.621094 36.144531 29.511719 36.484375 29.5 C 39.753906 29.386719 42.449219 27.339844 43.1875 24.410156 C 43.796875 21.988281 43.128906 19.511719 41.398438 17.785156 Z M 26.429688 42.457031 C 23.753906 45.132812 19.402344 45.132812 16.726562 42.457031 C 14.050781 39.78125 14.050781 35.429688 16.726562 32.753906 C 17.804688 31.675781 19.230469 30.996094 20.761719 30.820312 C 21.050781 31.214844 21.351562 31.605469 21.671875 32 C 18.558594 31.914062 15.964844 34.480469 15.964844 37.605469 C 15.964844 40.699219 18.484375 43.21875 21.578125 43.21875 C 24.675781 43.21875 27.191406 40.699219 27.191406 37.605469 C 27.191406 37.578125 27.183594 37.546875 27.183594 37.515625 C 27.578125 37.835938 27.96875 38.132812 28.363281 38.421875 C 28.1875 39.957031 27.507812 41.378906 26.429688 42.457031 Z M 25.71875 36.273438 C 25.871094 36.730469 25.945312 37.167969 25.945312 37.605469 C 25.945312 40.011719 23.984375 41.972656 21.578125 41.972656 C 19.171875 41.972656 17.214844 40.011719 17.214844 37.605469 C 17.214844 35.199219 19.171875 33.238281 21.578125 33.238281 C 22.015625 33.238281 22.453125 33.3125 22.914062 33.464844 C 23.347656 33.949219 23.800781 34.429688 24.277344 34.90625 C 24.277344 34.90625 24.277344 34.90625 24.277344 34.910156 C 24.753906 35.382812 25.234375 35.835938 25.71875 36.273438 Z M 38.417969 38.835938 C 38.402344 39.449219 38.234375 39.917969 37.921875 40.230469 C 37.613281 40.539062 37.144531 40.707031 36.53125 40.722656 C 34.746094 40.78125 32.136719 39.605469 29.398438 37.636719 C 29.390625 37.628906 29.386719 37.621094 29.378906 37.613281 C 28.683594 37.113281 28.003906 36.578125 27.335938 36.019531 C 27.265625 35.957031 27.191406 35.898438 27.117188 35.832031 C 26.445312 35.257812 25.789062 34.65625 25.160156 34.027344 C 24.527344 33.394531 23.925781 32.734375 23.347656 32.0625 C 23.289062 31.992188 23.234375 31.925781 23.175781 31.855469 C 22.613281 31.1875 22.074219 30.503906 21.570312 29.804688 C 21.566406 29.796875 21.554688 29.796875 21.550781 29.789062 C 19.585938 27.054688 18.414062 24.453125 18.460938 22.65625 C 18.476562 22.042969 18.644531 21.574219 18.957031 21.261719 C 19.265625 20.949219 19.734375 20.785156 20.347656 20.765625 C 22.347656 20.691406 25.515625 22.261719 28.726562 24.820312 C 28.214844 25.480469 27.5625 26.105469 26.929688 26.605469 C 26.257812 27.140625 26.042969 28.097656 26.421875 28.882812 C 26.734375 29.527344 27.261719 30.449219 28 31.1875 C 28.734375 31.921875 29.65625 32.449219 30.304688 32.761719 C 30.5625 32.890625 30.839844 32.949219 31.117188 32.949219 C 31.675781 32.949219 32.21875 32.703125 32.578125 32.253906 C 33.078125 31.625 33.707031 30.972656 34.367188 30.457031 C 36.921875 33.671875 38.472656 36.847656 38.417969 38.835938 Z M 41.976562 24.105469 C 41.375 26.488281 39.148438 28.15625 36.441406 28.253906 C 34.265625 28.328125 32.1875 30.742188 31.601562 31.476562 C 31.425781 31.699219 31.109375 31.769531 30.847656 31.640625 C 30.289062 31.371094 29.492188 30.917969 28.878906 30.304688 C 28.269531 29.691406 27.816406 28.894531 27.542969 28.335938 C 27.417969 28.074219 27.484375 27.757812 27.707031 27.582031 C 28.445312 26.996094 30.855469 24.917969 30.933594 22.746094 C 31.027344 20.035156 32.695312 17.808594 35.078125 17.210938 C 35.566406 17.085938 36.054688 17.027344 36.535156 17.027344 C 38.027344 17.027344 39.449219 17.601562 40.515625 18.667969 C 41.929688 20.082031 42.476562 22.113281 41.976562 24.105469 Z M 41.976562 24.105469 " fill-opacity="1" fill-rule="nonzero"/><g clip-path="url(#605c93c88a)"><g clip-path="url(#be0a236837)"><path fill="#e4e4e4" d="M 0 0.0585938 L 56.878906 0.0585938 L 56.878906 56.941406 L 0 56.941406 Z M 0 0.0585938 " fill-opacity="1" fill-rule="nonzero"/></g></g><g clip-path="url(#a6ea190d74)"><path fill="#000000" d="M 43.589844 24.648438 C 43.589844 24.644531 43.589844 24.640625 43.589844 24.632812 C 43.589844 24.632812 43.589844 24.632812 43.589844 24.628906 C 43.589844 24.625 43.585938 24.621094 43.585938 24.617188 C 43.585938 24.617188 43.585938 24.617188 43.585938 24.613281 C 43.585938 24.609375 43.582031 24.605469 43.582031 24.597656 C 43.578125 24.59375 43.578125 24.589844 43.574219 24.585938 C 43.574219 24.582031 43.574219 24.582031 43.574219 24.582031 C 43.570312 24.578125 43.570312 24.574219 43.566406 24.570312 C 43.566406 24.570312 43.566406 24.570312 43.566406 24.566406 C 43.5625 24.5625 43.558594 24.558594 43.554688 24.554688 C 43.554688 24.554688 43.554688 24.554688 43.554688 24.550781 C 43.550781 24.550781 43.546875 24.546875 43.542969 24.542969 C 43.542969 24.542969 43.542969 24.542969 43.542969 24.539062 C 43.539062 24.535156 43.535156 24.535156 43.53125 24.53125 C 43.53125 24.53125 43.527344 24.527344 43.527344 24.527344 C 43.523438 24.527344 43.519531 24.523438 43.515625 24.519531 C 43.503906 24.515625 43.496094 24.511719 43.488281 24.507812 C 42.097656 24.003906 40.757812 23.292969 39.460938 22.605469 C 38.03125 21.84375 36.550781 21.054688 34.984375 20.542969 C 34.710938 20.453125 34.433594 20.367188 34.164062 20.285156 C 33.488281 20.074219 32.792969 19.863281 32.140625 19.574219 C 31.664062 19.363281 31.167969 19.117188 30.6875 18.878906 C 30 18.535156 29.289062 18.179688 28.589844 17.910156 C 28.5625 17.898438 28.527344 17.898438 28.496094 17.90625 C 27.417969 18.164062 26.421875 18.683594 25.460938 19.183594 C 25.101562 19.371094 24.734375 19.566406 24.367188 19.742188 C 23.429688 20.191406 22.433594 20.5625 21.472656 20.921875 C 20.3125 21.355469 19.109375 21.804688 17.992188 22.394531 C 17.792969 22.5 17.59375 22.609375 17.402344 22.71875 C 16.992188 22.945312 16.566406 23.183594 16.128906 23.371094 C 15.761719 23.527344 15.363281 23.625 14.980469 23.71875 C 14.324219 23.882812 13.648438 24.046875 13.097656 24.511719 C 13.097656 24.511719 13.09375 24.511719 13.09375 24.511719 C 13.09375 24.511719 13.089844 24.515625 13.089844 24.515625 C 13.085938 24.515625 13.085938 24.515625 13.085938 24.519531 C 13.085938 24.519531 13.082031 24.523438 13.078125 24.527344 C 13.074219 24.53125 13.074219 24.53125 13.074219 24.535156 C 13.070312 24.535156 13.070312 24.535156 13.070312 24.535156 C 13.070312 24.539062 13.066406 24.539062 13.066406 24.542969 C 13.066406 24.542969 13.066406 24.542969 13.0625 24.546875 C 13.0625 24.546875 13.0625 24.546875 13.0625 24.550781 C 13.058594 24.550781 13.058594 24.554688 13.058594 24.554688 C 13.058594 24.554688 13.058594 24.558594 13.054688 24.558594 C 13.054688 24.5625 13.054688 24.5625 13.054688 24.5625 C 13.054688 24.566406 13.050781 24.566406 13.050781 24.570312 C 13.050781 24.570312 13.050781 24.570312 13.050781 24.574219 C 13.050781 24.574219 13.046875 24.578125 13.046875 24.578125 C 13.046875 24.578125 13.046875 24.582031 13.046875 24.582031 C 13.046875 24.585938 13.046875 24.585938 13.042969 24.589844 C 13.042969 24.589844 13.042969 24.589844 13.042969 24.59375 C 13.042969 24.59375 13.042969 24.597656 13.042969 24.597656 C 13.042969 24.597656 13.042969 24.601562 13.042969 24.601562 C 13.039062 24.605469 13.039062 24.605469 13.039062 24.609375 C 13.039062 24.609375 13.039062 24.609375 13.039062 24.613281 C 13.039062 24.613281 13.039062 24.617188 13.039062 24.621094 C 13.039062 24.625 13.039062 24.628906 13.039062 24.632812 C 13.039062 24.632812 13.039062 24.636719 13.039062 24.636719 C 13.039062 24.640625 13.039062 24.640625 13.039062 24.644531 C 13.039062 24.644531 13.039062 24.644531 13.039062 24.648438 C 13.039062 24.648438 13.039062 24.652344 13.039062 24.652344 C 13.039062 24.65625 13.039062 24.65625 13.042969 24.660156 C 13.042969 24.660156 13.042969 24.660156 13.042969 24.664062 C 13.042969 24.664062 13.042969 24.667969 13.042969 24.667969 C 13.042969 24.671875 13.042969 24.671875 13.046875 24.671875 C 13.046875 24.675781 13.046875 24.675781 13.046875 24.675781 C 13.101562 24.984375 13.074219 29.648438 13.039062 32.71875 C 13.039062 32.78125 13.078125 32.839844 13.136719 32.863281 L 28.546875 38.835938 C 28.550781 38.835938 28.554688 38.835938 28.558594 38.839844 C 28.5625 38.839844 28.5625 38.839844 28.5625 38.839844 C 28.566406 38.839844 28.570312 38.839844 28.574219 38.839844 C 28.574219 38.84375 28.578125 38.84375 28.578125 38.84375 C 28.582031 38.84375 28.582031 38.84375 28.585938 38.84375 C 28.589844 38.84375 28.589844 38.84375 28.589844 38.84375 C 28.59375 38.84375 28.601562 38.84375 28.605469 38.84375 C 28.609375 38.84375 28.613281 38.84375 28.617188 38.84375 C 28.617188 38.84375 28.621094 38.84375 28.621094 38.84375 C 28.625 38.84375 28.628906 38.84375 28.632812 38.84375 C 28.632812 38.84375 28.632812 38.84375 28.636719 38.839844 C 28.636719 38.839844 28.640625 38.839844 28.644531 38.839844 C 28.644531 38.839844 28.648438 38.839844 28.648438 38.839844 C 28.652344 38.835938 28.65625 38.835938 28.660156 38.835938 L 43.621094 32.996094 C 43.683594 32.972656 43.722656 32.914062 43.722656 32.851562 Z M 15.054688 24.019531 C 15.449219 23.921875 15.859375 23.820312 16.253906 23.65625 C 16.703125 23.460938 17.136719 23.222656 17.554688 22.988281 C 17.746094 22.882812 17.945312 22.769531 18.140625 22.667969 C 19.238281 22.085938 20.429688 21.640625 21.582031 21.210938 C 22.550781 20.847656 23.550781 20.476562 24.5 20.019531 C 24.875 19.84375 25.246094 19.648438 25.605469 19.460938 C 26.539062 18.972656 27.5 18.472656 28.523438 18.21875 C 29.195312 18.480469 29.882812 18.820312 30.546875 19.152344 C 31.027344 19.394531 31.527344 19.644531 32.011719 19.859375 C 32.679688 20.152344 33.386719 20.371094 34.070312 20.578125 C 34.339844 20.664062 34.617188 20.75 34.886719 20.835938 C 36.425781 21.34375 37.894531 22.121094 39.3125 22.878906 C 40.46875 23.492188 41.660156 24.125 42.898438 24.617188 C 42.863281 24.625 42.832031 24.628906 42.796875 24.636719 C 42.652344 24.667969 42.507812 24.703125 42.359375 24.734375 C 42.292969 24.75 42.230469 24.765625 42.167969 24.78125 C 42.144531 24.785156 42.125 24.789062 42.101562 24.796875 C 41.65625 24.90625 41.210938 25.035156 40.847656 25.210938 C 40.140625 25.550781 39.488281 25.761719 38.828125 25.949219 C 38.640625 26 38.457031 26.050781 38.269531 26.101562 C 37.722656 26.25 37.15625 26.402344 36.539062 26.621094 C 35.496094 26.988281 34.582031 27.535156 33.699219 28.0625 C 33.1875 28.371094 32.65625 28.691406 32.101562 28.972656 C 32.070312 28.988281 32.039062 29.003906 32.007812 29.019531 C 31.996094 29.023438 31.980469 29.03125 31.964844 29.039062 C 31.511719 29.253906 30.984375 29.4375 30.476562 29.613281 C 29.828125 29.839844 29.160156 30.070312 28.601562 30.378906 C 28.15625 30.027344 27.515625 29.730469 26.644531 29.46875 C 26.085938 29.296875 25.496094 29.164062 24.960938 29.054688 C 24.75 29.011719 24.550781 28.96875 24.363281 28.933594 C 24.261719 28.914062 24.164062 28.894531 24.070312 28.875 C 23.390625 28.738281 22.824219 28.535156 22.226562 28.320312 C 22.128906 28.285156 22.027344 28.25 21.925781 28.214844 C 21.757812 28.15625 21.585938 28.09375 21.402344 28.035156 C 20.039062 27.585938 19.085938 27.230469 17.78125 26.671875 C 17.671875 26.625 17.558594 26.574219 17.445312 26.523438 C 16.75 26.222656 16.042969 25.863281 15.359375 25.511719 C 14.75 25.199219 14.125 24.875 13.5 24.59375 C 13.957031 24.292969 14.492188 24.160156 15.054688 24.019531 Z M 13.351562 32.613281 C 13.355469 32.175781 13.375 30.46875 13.382812 28.761719 C 13.398438 26.277344 13.386719 25.285156 13.371094 24.878906 C 13.375 24.878906 13.378906 24.882812 13.382812 24.882812 C 13.398438 24.890625 13.414062 24.898438 13.425781 24.902344 C 13.453125 24.914062 13.480469 24.929688 13.507812 24.941406 C 13.523438 24.949219 13.539062 24.953125 13.554688 24.960938 C 13.582031 24.972656 13.605469 24.984375 13.632812 24.996094 C 13.648438 25.003906 13.664062 25.011719 13.683594 25.019531 C 13.707031 25.035156 13.730469 25.046875 13.757812 25.058594 C 13.773438 25.066406 13.789062 25.074219 13.808594 25.082031 C 13.832031 25.09375 13.859375 25.105469 13.882812 25.117188 C 13.898438 25.125 13.914062 25.132812 13.929688 25.140625 C 13.960938 25.152344 13.988281 25.167969 14.015625 25.179688 C 14.027344 25.1875 14.042969 25.195312 14.054688 25.199219 C 14.089844 25.21875 14.128906 25.234375 14.164062 25.253906 C 14.167969 25.257812 14.175781 25.257812 14.179688 25.261719 C 14.222656 25.28125 14.261719 25.300781 14.304688 25.324219 C 14.316406 25.328125 14.324219 25.332031 14.335938 25.339844 C 14.367188 25.355469 14.398438 25.371094 14.429688 25.386719 C 14.441406 25.394531 14.457031 25.398438 14.472656 25.40625 C 14.5 25.421875 14.527344 25.433594 14.554688 25.449219 C 14.570312 25.457031 14.585938 25.464844 14.601562 25.472656 C 14.625 25.484375 14.652344 25.5 14.675781 25.511719 C 14.695312 25.519531 14.710938 25.527344 14.726562 25.535156 C 14.75 25.550781 14.777344 25.5625 14.804688 25.574219 C 14.820312 25.582031 14.835938 25.589844 14.851562 25.597656 C 14.875 25.613281 14.902344 25.625 14.929688 25.640625 C 14.945312 25.648438 14.960938 25.65625 14.972656 25.660156 C 15.003906 25.679688 15.035156 25.695312 15.066406 25.710938 C 15.074219 25.714844 15.085938 25.71875 15.09375 25.722656 C 15.136719 25.746094 15.175781 25.765625 15.214844 25.785156 C 15.902344 26.140625 16.617188 26.503906 17.316406 26.808594 C 17.433594 26.859375 17.546875 26.910156 17.660156 26.957031 C 17.714844 26.980469 17.765625 27.003906 17.820312 27.023438 C 17.84375 27.035156 17.867188 27.046875 17.894531 27.054688 C 18.007812 27.105469 18.117188 27.152344 18.226562 27.195312 C 18.234375 27.199219 18.242188 27.203125 18.246094 27.203125 C 18.511719 27.316406 18.765625 27.417969 19.015625 27.515625 C 19.019531 27.515625 19.019531 27.515625 19.019531 27.515625 C 19.210938 27.589844 19.394531 27.660156 19.582031 27.730469 C 19.648438 27.757812 19.71875 27.78125 19.785156 27.804688 C 20.257812 27.976562 20.746094 28.144531 21.304688 28.328125 C 21.464844 28.382812 21.621094 28.4375 21.773438 28.488281 C 21.824219 28.507812 21.875 28.523438 21.921875 28.542969 C 21.988281 28.566406 22.054688 28.589844 22.121094 28.613281 C 22.691406 28.816406 23.230469 29.011719 23.878906 29.152344 C 23.921875 29.160156 23.964844 29.167969 24.007812 29.179688 C 24.101562 29.199219 24.199219 29.21875 24.300781 29.238281 C 24.964844 29.367188 25.789062 29.53125 26.554688 29.765625 C 26.582031 29.773438 26.609375 29.78125 26.632812 29.789062 C 26.644531 29.792969 26.652344 29.792969 26.664062 29.796875 C 26.679688 29.804688 26.695312 29.808594 26.714844 29.8125 C 26.726562 29.816406 26.734375 29.820312 26.746094 29.824219 C 26.761719 29.828125 26.777344 29.832031 26.792969 29.839844 C 26.804688 29.84375 26.8125 29.847656 26.824219 29.851562 C 26.839844 29.855469 26.855469 29.859375 26.867188 29.863281 C 26.878906 29.867188 26.890625 29.871094 26.902344 29.875 C 26.914062 29.878906 26.929688 29.882812 26.941406 29.890625 C 26.953125 29.894531 26.964844 29.898438 26.976562 29.902344 C 26.988281 29.90625 27.003906 29.910156 27.015625 29.914062 C 27.027344 29.917969 27.039062 29.921875 27.050781 29.925781 C 27.0625 29.929688 27.074219 29.9375 27.085938 29.941406 C 27.097656 29.945312 27.109375 29.949219 27.121094 29.953125 C 27.132812 29.957031 27.144531 29.960938 27.160156 29.964844 C 27.167969 29.96875 27.179688 29.976562 27.191406 29.980469 C 27.203125 29.984375 27.214844 29.988281 27.226562 29.992188 C 27.238281 29.996094 27.25 30 27.261719 30.003906 C 27.273438 30.007812 27.285156 30.015625 27.296875 30.019531 C 27.308594 30.023438 27.316406 30.027344 27.328125 30.03125 C 27.339844 30.035156 27.351562 30.039062 27.363281 30.046875 C 27.375 30.050781 27.382812 30.054688 27.394531 30.058594 C 27.40625 30.0625 27.417969 30.066406 27.429688 30.074219 C 27.4375 30.078125 27.449219 30.082031 27.457031 30.085938 C 27.46875 30.089844 27.480469 30.09375 27.492188 30.097656 C 27.5 30.105469 27.511719 30.109375 27.523438 30.113281 C 27.53125 30.117188 27.542969 30.121094 27.554688 30.125 C 27.5625 30.132812 27.574219 30.136719 27.585938 30.140625 C 27.59375 30.144531 27.605469 30.148438 27.617188 30.15625 C 27.625 30.160156 27.636719 30.164062 27.644531 30.167969 C 27.65625 30.171875 27.664062 30.175781 27.675781 30.183594 C 27.683594 30.1875 27.695312 30.191406 27.703125 30.195312 C 27.714844 30.199219 27.722656 30.207031 27.734375 30.210938 C 27.742188 30.214844 27.753906 30.21875 27.761719 30.222656 C 27.773438 30.230469 27.78125 30.234375 27.792969 30.238281 C 27.800781 30.242188 27.808594 30.246094 27.816406 30.253906 C 27.828125 30.257812 27.839844 30.261719 27.847656 30.269531 C 27.855469 30.273438 27.863281 30.277344 27.875 30.28125 C 27.882812 30.285156 27.894531 30.292969 27.902344 30.296875 C 27.910156 30.300781 27.917969 30.304688 27.925781 30.308594 C 27.9375 30.316406 27.949219 30.320312 27.957031 30.328125 C 27.964844 30.332031 27.972656 30.335938 27.980469 30.339844 C 27.992188 30.347656 28.003906 30.351562 28.019531 30.359375 C 28.023438 30.363281 28.027344 30.367188 28.03125 30.367188 C 28.046875 30.378906 28.066406 30.386719 28.082031 30.398438 C 28.085938 30.402344 28.09375 30.40625 28.097656 30.40625 C 28.109375 30.414062 28.121094 30.421875 28.128906 30.425781 C 28.136719 30.429688 28.144531 30.4375 28.148438 30.441406 C 28.160156 30.445312 28.167969 30.453125 28.175781 30.457031 C 28.183594 30.460938 28.191406 30.464844 28.199219 30.472656 C 28.207031 30.476562 28.214844 30.480469 28.222656 30.488281 C 28.230469 30.492188 28.238281 30.496094 28.242188 30.5 C 28.253906 30.507812 28.261719 30.511719 28.269531 30.519531 C 28.273438 30.523438 28.28125 30.527344 28.289062 30.53125 C 28.296875 30.539062 28.304688 30.542969 28.3125 30.550781 C 28.320312 30.554688 28.324219 30.558594 28.332031 30.5625 C 28.339844 30.570312 28.347656 30.574219 28.355469 30.582031 C 28.359375 30.585938 28.367188 30.589844 28.375 30.59375 C 28.382812 30.601562 28.390625 30.605469 28.394531 30.613281 C 28.402344 30.617188 28.410156 30.621094 28.414062 30.628906 C 28.417969 30.632812 28.425781 30.632812 28.429688 30.636719 L 28.445312 38.460938 Z M 28.761719 38.460938 L 28.742188 30.65625 C 28.746094 30.652344 28.75 30.648438 28.753906 30.648438 C 28.761719 30.644531 28.773438 30.636719 28.78125 30.632812 C 28.789062 30.628906 28.796875 30.625 28.808594 30.621094 C 28.816406 30.613281 28.824219 30.609375 28.832031 30.605469 C 28.84375 30.601562 28.851562 30.597656 28.859375 30.589844 C 28.867188 30.585938 28.878906 30.582031 28.886719 30.578125 C 28.894531 30.574219 28.90625 30.566406 28.914062 30.5625 C 28.921875 30.558594 28.929688 30.554688 28.941406 30.550781 C 28.949219 30.546875 28.957031 30.542969 28.96875 30.535156 C 28.976562 30.53125 28.984375 30.527344 28.996094 30.523438 C 29.003906 30.519531 29.011719 30.515625 29.023438 30.507812 C 29.03125 30.503906 29.039062 30.5 29.050781 30.496094 C 29.058594 30.492188 29.070312 30.488281 29.078125 30.484375 C 29.085938 30.480469 29.097656 30.476562 29.105469 30.472656 C 29.117188 30.464844 29.125 30.460938 29.136719 30.457031 C 29.144531 30.453125 29.152344 30.449219 29.160156 30.445312 C 29.171875 30.441406 29.183594 30.433594 29.195312 30.429688 C 29.203125 30.425781 29.210938 30.421875 29.21875 30.417969 C 29.230469 30.414062 29.246094 30.40625 29.257812 30.402344 C 29.261719 30.398438 29.269531 30.398438 29.277344 30.394531 C 29.292969 30.386719 29.3125 30.378906 29.332031 30.371094 C 29.339844 30.367188 29.34375 30.363281 29.351562 30.363281 C 29.363281 30.355469 29.378906 30.351562 29.390625 30.34375 C 29.398438 30.339844 29.40625 30.339844 29.414062 30.335938 C 29.425781 30.332031 29.4375 30.324219 29.449219 30.320312 C 29.457031 30.316406 29.46875 30.3125 29.476562 30.308594 C 29.488281 30.304688 29.5 30.300781 29.507812 30.296875 C 29.519531 30.292969 29.527344 30.289062 29.535156 30.285156 C 29.546875 30.28125 29.558594 30.277344 29.570312 30.273438 C 29.578125 30.269531 29.585938 30.265625 29.597656 30.261719 C 29.605469 30.257812 29.617188 30.253906 29.628906 30.25 C 29.636719 30.246094 29.648438 30.242188 29.65625 30.238281 C 29.667969 30.234375 29.679688 30.230469 29.6875 30.226562 C 29.699219 30.222656 29.707031 30.21875 29.71875 30.214844 C 29.726562 30.210938 29.738281 30.207031 29.75 30.203125 C 29.757812 30.199219 29.769531 30.195312 29.777344 30.191406 C 29.789062 30.1875 29.800781 30.183594 29.8125 30.179688 C 29.820312 30.175781 29.828125 30.171875 29.839844 30.167969 C 29.851562 30.164062 29.859375 30.160156 29.871094 30.15625 C 29.882812 30.152344 29.890625 30.148438 29.898438 30.144531 C 29.910156 30.140625 29.921875 30.136719 29.933594 30.132812 C 29.941406 30.132812 29.953125 30.128906 29.960938 30.125 C 29.972656 30.121094 29.984375 30.117188 29.996094 30.113281 C 30.003906 30.109375 30.011719 30.105469 30.023438 30.101562 C 30.035156 30.097656 30.046875 30.09375 30.054688 30.089844 C 30.066406 30.085938 30.074219 30.082031 30.085938 30.078125 C 30.097656 30.074219 30.105469 30.070312 30.117188 30.066406 C 30.128906 30.0625 30.136719 30.0625 30.144531 30.058594 C 30.15625 30.054688 30.167969 30.050781 30.179688 30.046875 C 30.191406 30.042969 30.199219 30.039062 30.207031 30.035156 C 30.21875 30.03125 30.230469 30.027344 30.242188 30.023438 C 30.25 30.019531 30.261719 30.015625 30.269531 30.015625 C 30.28125 30.011719 30.292969 30.003906 30.304688 30 C 30.3125 30 30.324219 29.996094 30.332031 29.992188 C 30.34375 29.988281 30.355469 29.984375 30.367188 29.980469 C 30.375 29.976562 30.386719 29.972656 30.394531 29.96875 C 30.40625 29.964844 30.417969 29.960938 30.429688 29.957031 C 30.4375 29.957031 30.445312 29.953125 30.457031 29.949219 C 30.472656 29.941406 30.492188 29.9375 30.507812 29.929688 C 30.511719 29.929688 30.511719 29.929688 30.515625 29.929688 C 30.535156 29.921875 30.558594 29.914062 30.578125 29.90625 C 31.117188 29.71875 31.671875 29.527344 32.148438 29.296875 C 32.179688 29.28125 32.210938 29.265625 32.242188 29.25 C 32.808594 28.960938 33.34375 28.640625 33.859375 28.328125 C 34.769531 27.785156 35.628906 27.269531 36.644531 26.914062 C 37.25 26.699219 37.808594 26.546875 38.351562 26.402344 C 39.171875 26.179688 39.949219 25.96875 40.8125 25.570312 C 40.867188 25.542969 40.925781 25.515625 40.984375 25.488281 C 41.503906 25.238281 42.226562 25.082031 42.863281 24.941406 C 42.894531 24.933594 42.921875 24.929688 42.953125 24.921875 C 42.964844 24.917969 42.976562 24.917969 42.988281 24.914062 C 43.011719 24.910156 43.03125 24.90625 43.050781 24.898438 C 43.0625 24.898438 43.074219 24.894531 43.085938 24.890625 C 43.117188 24.886719 43.148438 24.878906 43.179688 24.871094 C 43.179688 24.871094 43.183594 24.871094 43.1875 24.871094 C 43.214844 24.863281 43.242188 24.855469 43.269531 24.851562 C 43.273438 24.851562 43.277344 24.847656 43.28125 24.847656 L 43.40625 32.75 Z M 28.761719 38.460938 " fill-opacity="1" fill-rule="nonzero"/></g><path fill="#000000" d="M 31.125 30.648438 C 31.109375 30.648438 30.054688 30.660156 29.722656 31.011719 C 29.644531 31.09375 29.609375 31.195312 29.617188 31.296875 C 29.625 31.390625 29.667969 31.464844 29.742188 31.519531 C 29.828125 31.582031 29.957031 31.613281 30.136719 31.613281 C 30.367188 31.613281 30.6875 31.5625 31.117188 31.457031 C 31.136719 31.453125 31.152344 31.449219 31.164062 31.449219 C 31.269531 31.421875 31.375 31.394531 31.472656 31.320312 C 31.601562 31.21875 31.65625 31.058594 31.613281 30.917969 C 31.5625 30.746094 31.382812 30.648438 31.125 30.648438 Z M 31.277344 31.074219 C 31.234375 31.109375 31.164062 31.128906 31.089844 31.144531 C 31.078125 31.148438 31.0625 31.152344 31.042969 31.15625 C 30.902344 31.191406 30.640625 31.253906 30.390625 31.285156 C 30.042969 31.328125 29.945312 31.28125 29.929688 31.269531 C 29.929688 31.261719 29.929688 31.246094 29.953125 31.222656 C 30.121094 31.046875 30.804688 30.957031 31.125 30.957031 C 31.246094 30.957031 31.308594 30.988281 31.316406 31.007812 C 31.320312 31.019531 31.304688 31.054688 31.277344 31.074219 Z M 31.277344 31.074219 " fill-opacity="1" fill-rule="nonzero"/><path fill="#000000" d="M 34.742188 34.167969 C 34.671875 34.105469 34.589844 34.101562 34.550781 34.097656 C 34.359375 34.085938 34.160156 34.113281 33.976562 34.179688 C 33.710938 34.277344 33.542969 34.386719 33.460938 34.511719 C 33.386719 34.628906 33.429688 34.71875 33.453125 34.753906 C 33.507812 34.839844 33.613281 34.882812 33.796875 34.890625 C 33.824219 34.894531 33.851562 34.894531 33.875 34.894531 C 33.949219 34.894531 34.015625 34.890625 34.046875 34.882812 C 34.277344 34.855469 34.488281 34.769531 34.664062 34.632812 C 34.738281 34.574219 34.820312 34.472656 34.824219 34.355469 C 34.828125 34.28125 34.796875 34.214844 34.742188 34.167969 Z M 34.007812 34.578125 C 33.964844 34.582031 33.902344 34.585938 33.839844 34.582031 C 33.894531 34.550781 33.96875 34.511719 34.082031 34.472656 C 34.199219 34.429688 34.324219 34.40625 34.449219 34.40625 C 34.324219 34.496094 34.171875 34.554688 34.007812 34.578125 Z M 34.007812 34.578125 " fill-opacity="1" fill-rule="nonzero"/><path fill="#000000" d="M 30.703125 34.097656 C 30.898438 34.070312 31.085938 33.996094 31.242188 33.875 C 31.316406 33.820312 31.382812 33.707031 31.3125 33.648438 C 31.289062 33.625 31.25 33.621094 31.214844 33.617188 C 31.042969 33.609375 30.867188 33.632812 30.703125 33.691406 C 30.566406 33.742188 30.347656 33.832031 30.265625 33.960938 C 30.15625 34.132812 30.628906 34.105469 30.703125 34.097656 Z M 30.703125 34.097656 " fill-opacity="1" fill-rule="nonzero"/><path fill="#000000" d="M 36.429688 30.125 C 36.625 30.101562 36.816406 30.027344 36.972656 29.90625 C 37.042969 29.851562 37.109375 29.738281 37.042969 29.679688 C 37.015625 29.65625 36.976562 29.652344 36.941406 29.648438 C 36.769531 29.636719 36.59375 29.664062 36.429688 29.722656 C 36.292969 29.773438 36.074219 29.863281 35.992188 29.992188 C 35.882812 30.164062 36.355469 30.136719 36.429688 30.125 Z M 36.429688 30.125 " fill-opacity="1" fill-rule="nonzero"/><path fill="#000000" d="M 33.367188 30.460938 C 33.390625 30.460938 33.417969 30.460938 33.445312 30.460938 C 33.519531 30.460938 33.585938 30.457031 33.617188 30.453125 C 33.84375 30.425781 34.058594 30.335938 34.234375 30.203125 C 34.308594 30.144531 34.390625 30.039062 34.394531 29.921875 C 34.394531 29.851562 34.367188 29.785156 34.3125 29.734375 C 34.242188 29.675781 34.15625 29.667969 34.121094 29.667969 C 33.929688 29.65625 33.730469 29.683594 33.542969 29.75 C 33.277344 29.84375 33.109375 29.953125 33.027344 30.082031 C 32.957031 30.195312 33 30.289062 33.019531 30.324219 C 33.074219 30.410156 33.179688 30.449219 33.367188 30.460938 Z M 33.652344 30.042969 C 33.769531 30 33.894531 29.976562 34.019531 29.976562 C 33.890625 30.066406 33.738281 30.125 33.578125 30.144531 C 33.535156 30.152344 33.46875 30.152344 33.40625 30.152344 C 33.460938 30.121094 33.539062 30.082031 33.652344 30.042969 Z M 33.652344 30.042969 " fill-opacity="1" fill-rule="nonzero"/><path fill="#000000" d="M 41.304688 27.226562 C 41.359375 27.285156 41.433594 27.316406 41.527344 27.316406 C 41.648438 27.316406 41.800781 27.269531 41.984375 27.179688 C 42.125 27.109375 42.285156 27.019531 42.417969 26.910156 C 42.457031 26.875 42.492188 26.84375 42.523438 26.808594 C 42.625 26.699219 42.65625 26.558594 42.605469 26.449219 C 42.582031 26.398438 42.507812 26.285156 42.308594 26.292969 C 42.175781 26.296875 42.027344 26.324219 41.859375 26.375 C 41.433594 26.503906 41.207031 26.753906 41.242188 27.066406 C 41.246094 27.109375 41.257812 27.171875 41.304688 27.226562 Z M 41.648438 26.820312 C 41.71875 26.761719 41.824219 26.710938 41.953125 26.671875 C 42.078125 26.632812 42.1875 26.613281 42.289062 26.605469 C 42.265625 26.628906 42.242188 26.648438 42.21875 26.671875 C 42.109375 26.761719 41.96875 26.839844 41.84375 26.902344 C 41.710938 26.96875 41.605469 27 41.550781 27.003906 C 41.550781 26.957031 41.566406 26.890625 41.648438 26.820312 Z M 41.648438 26.820312 " fill-opacity="1" fill-rule="nonzero"/><path fill="#000000" d="M 36.53125 32.273438 C 36.394531 32.277344 36.25 32.308594 36.121094 32.347656 C 35.878906 32.421875 35.582031 32.578125 35.613281 32.875 C 35.613281 32.902344 35.621094 32.929688 35.636719 32.949219 C 35.730469 33.054688 36.039062 32.910156 36.128906 32.863281 C 36.265625 32.796875 36.414062 32.714844 36.535156 32.617188 C 36.566406 32.589844 36.597656 32.5625 36.621094 32.53125 C 36.71875 32.425781 36.722656 32.269531 36.53125 32.273438 Z M 36.53125 32.273438 " fill-opacity="1" fill-rule="nonzero"/><path fill="#000000" d="M 31.289062 36.027344 C 31.15625 36.03125 31.007812 36.058594 30.84375 36.109375 C 30.414062 36.238281 30.1875 36.488281 30.222656 36.800781 C 30.226562 36.84375 30.238281 36.90625 30.285156 36.960938 C 30.339844 37.019531 30.414062 37.050781 30.507812 37.050781 C 30.628906 37.050781 30.78125 37.003906 30.964844 36.910156 C 31.105469 36.84375 31.265625 36.753906 31.402344 36.640625 C 31.4375 36.609375 31.472656 36.578125 31.503906 36.542969 C 31.605469 36.433594 31.636719 36.292969 31.585938 36.183594 C 31.5625 36.132812 31.488281 36.019531 31.289062 36.027344 Z M 31.199219 36.40625 C 31.089844 36.496094 30.949219 36.574219 30.824219 36.636719 C 30.691406 36.703125 30.585938 36.734375 30.53125 36.738281 C 30.53125 36.691406 30.546875 36.625 30.632812 36.554688 C 30.699219 36.496094 30.804688 36.445312 30.933594 36.40625 C 31.058594 36.367188 31.171875 36.347656 31.269531 36.339844 C 31.25 36.363281 31.222656 36.382812 31.199219 36.40625 Z M 31.199219 36.40625 " fill-opacity="1" fill-rule="nonzero"/><path fill="#000000" d="M 38.160156 27.429688 C 38.25 27.535156 38.558594 27.390625 38.648438 27.34375 C 38.785156 27.277344 38.933594 27.195312 39.054688 27.09375 C 39.085938 27.070312 39.117188 27.039062 39.144531 27.011719 C 39.242188 26.90625 39.242188 26.746094 39.050781 26.753906 C 38.914062 26.757812 38.773438 26.789062 38.640625 26.828125 C 38.398438 26.902344 38.101562 27.058594 38.132812 27.355469 C 38.136719 27.382812 38.140625 27.410156 38.160156 27.429688 Z M 38.160156 27.429688 " fill-opacity="1" fill-rule="nonzero"/><path fill="#000000" d="M 39.535156 31.226562 C 39.402344 31.230469 39.25 31.257812 39.085938 31.308594 C 38.660156 31.4375 38.433594 31.6875 38.46875 32 C 38.472656 32.042969 38.484375 32.105469 38.53125 32.160156 C 38.585938 32.21875 38.660156 32.25 38.753906 32.25 C 38.875 32.25 39.027344 32.203125 39.210938 32.109375 C 39.351562 32.039062 39.511719 31.953125 39.644531 31.839844 C 39.683594 31.808594 39.71875 31.777344 39.75 31.742188 C 39.851562 31.632812 39.882812 31.492188 39.832031 31.382812 C 39.808594 31.332031 39.734375 31.21875 39.535156 31.226562 Z M 39.445312 31.605469 C 39.335938 31.695312 39.191406 31.773438 39.070312 31.835938 C 38.9375 31.902344 38.832031 31.933594 38.777344 31.9375 C 38.777344 31.890625 38.792969 31.824219 38.875 31.753906 C 38.945312 31.695312 39.050781 31.644531 39.179688 31.605469 C 39.300781 31.566406 39.414062 31.546875 39.515625 31.539062 C 39.492188 31.5625 39.46875 31.582031 39.445312 31.605469 Z M 39.445312 31.605469 " fill-opacity="1" fill-rule="nonzero"/><path fill="#000000" d="M 42.046875 30.214844 C 41.949219 30.246094 41.578125 30.339844 41.578125 30.476562 C 41.578125 30.566406 41.738281 30.597656 41.8125 30.59375 C 42.023438 30.582031 42.226562 30.550781 42.429688 30.484375 C 42.554688 30.441406 42.707031 30.390625 42.746094 30.246094 C 42.839844 29.910156 42.171875 30.167969 42.046875 30.214844 Z M 42.046875 30.214844 " fill-opacity="1" fill-rule="nonzero"/><path fill="#000000" d="M 41.636719 32.28125 C 41.503906 32.160156 41.253906 32.179688 40.808594 32.34375 L 40.796875 32.351562 C 40.785156 32.355469 40.761719 32.359375 40.738281 32.367188 C 40.535156 32.433594 40.222656 32.53125 40.226562 32.757812 C 40.226562 32.824219 40.253906 32.882812 40.300781 32.929688 C 40.390625 33.011719 40.53125 33.03125 40.605469 33.03125 C 40.613281 33.03125 40.617188 33.03125 40.625 33.03125 C 40.871094 33.019531 41.085938 32.980469 41.285156 32.914062 C 41.425781 32.867188 41.640625 32.792969 41.703125 32.570312 C 41.746094 32.410156 41.679688 32.320312 41.636719 32.28125 Z M 41.183594 32.621094 C 41.03125 32.671875 40.867188 32.703125 40.679688 32.71875 C 40.722656 32.699219 40.773438 32.683594 40.835938 32.664062 C 40.863281 32.65625 40.886719 32.648438 40.90625 32.640625 L 40.917969 32.636719 C 41.191406 32.535156 41.324219 32.515625 41.386719 32.515625 C 41.355469 32.558594 41.28125 32.585938 41.183594 32.621094 Z M 41.183594 32.621094 " fill-opacity="1" fill-rule="nonzero"/><path fill="#000000" d="M 39.941406 29.113281 C 39.847656 29.148438 39.472656 29.238281 39.472656 29.375 C 39.472656 29.46875 39.636719 29.496094 39.707031 29.492188 C 39.917969 29.484375 40.125 29.449219 40.324219 29.382812 C 40.453125 29.339844 40.601562 29.289062 40.640625 29.144531 C 40.734375 28.8125 40.066406 29.066406 39.941406 29.113281 Z M 39.941406 29.113281 " fill-opacity="1" fill-rule="nonzero"/><path fill="#000000" d="M 26.238281 34.683594 C 26.148438 34.664062 26.035156 34.648438 25.921875 34.691406 C 25.765625 34.75 25.675781 34.910156 25.714844 35.054688 C 25.742188 35.167969 25.832031 35.230469 25.875 35.261719 C 26.066406 35.398438 26.273438 35.515625 26.496094 35.605469 L 26.503906 35.609375 C 26.664062 35.671875 26.847656 35.746094 27.039062 35.761719 C 27.046875 35.761719 27.054688 35.761719 27.066406 35.761719 C 27.082031 35.761719 27.101562 35.757812 27.125 35.753906 C 27.179688 35.738281 27.222656 35.710938 27.253906 35.667969 C 27.371094 35.515625 27.234375 35.296875 27.171875 35.226562 C 26.929688 34.953125 26.597656 34.757812 26.238281 34.683594 Z M 26.621094 35.320312 L 26.613281 35.316406 C 26.414062 35.238281 26.230469 35.132812 26.058594 35.011719 C 26.042969 35 26.03125 34.992188 26.027344 34.984375 C 26.027344 34.984375 26.03125 34.980469 26.035156 34.980469 C 26.070312 34.96875 26.128906 34.976562 26.171875 34.988281 C 26.46875 35.050781 26.738281 35.207031 26.933594 35.429688 C 26.832031 35.40625 26.726562 35.363281 26.621094 35.320312 Z M 26.621094 35.320312 " fill-opacity="1" fill-rule="nonzero"/><path fill="#000000" d="M 23.542969 32.734375 C 23.5625 32.726562 23.578125 32.71875 23.585938 32.707031 C 23.636719 32.640625 23.546875 32.5 23.511719 32.457031 C 23.292969 32.210938 22.992188 32.035156 22.664062 31.964844 C 22.589844 31.949219 22.507812 31.9375 22.433594 31.964844 C 22.363281 31.996094 22.304688 32.070312 22.324219 32.144531 C 22.335938 32.199219 22.382812 32.234375 22.425781 32.265625 C 22.609375 32.398438 22.804688 32.507812 23.011719 32.589844 C 23.171875 32.65625 23.335938 32.722656 23.507812 32.734375 C 23.519531 32.734375 23.53125 32.734375 23.542969 32.734375 Z M 23.542969 32.734375 " fill-opacity="1" fill-rule="nonzero"/><path fill="#000000" d="M 23.359375 34.75 C 23.28125 34.734375 23.199219 34.722656 23.128906 34.753906 C 23.054688 34.78125 23 34.859375 23.015625 34.933594 C 23.03125 34.984375 23.078125 35.023438 23.121094 35.054688 C 23.300781 35.183594 23.5 35.292969 23.707031 35.375 C 23.867188 35.441406 24.03125 35.507812 24.203125 35.519531 C 24.214844 35.523438 24.226562 35.523438 24.234375 35.519531 C 24.257812 35.515625 24.273438 35.503906 24.28125 35.492188 C 24.332031 35.425781 24.242188 35.285156 24.207031 35.246094 C 23.988281 34.996094 23.683594 34.820312 23.359375 34.75 Z M 23.359375 34.75 " fill-opacity="1" fill-rule="nonzero"/><path fill="#000000" d="M 26.445312 30.777344 C 26.355469 30.757812 26.238281 30.742188 26.125 30.785156 C 25.972656 30.84375 25.882812 31.003906 25.917969 31.148438 C 25.949219 31.261719 26.039062 31.324219 26.082031 31.355469 C 26.273438 31.496094 26.480469 31.609375 26.703125 31.699219 L 26.710938 31.703125 C 26.871094 31.765625 27.050781 31.839844 27.246094 31.855469 C 27.253906 31.855469 27.261719 31.855469 27.273438 31.855469 C 27.289062 31.855469 27.308594 31.855469 27.328125 31.847656 C 27.382812 31.832031 27.429688 31.804688 27.460938 31.761719 C 27.578125 31.609375 27.441406 31.390625 27.378906 31.320312 C 27.136719 31.046875 26.804688 30.855469 26.445312 30.777344 Z M 26.828125 31.414062 L 26.820312 31.410156 C 26.621094 31.332031 26.433594 31.230469 26.265625 31.105469 C 26.25 31.09375 26.238281 31.085938 26.230469 31.078125 C 26.234375 31.078125 26.238281 31.078125 26.238281 31.074219 C 26.277344 31.0625 26.332031 31.070312 26.378906 31.082031 C 26.671875 31.144531 26.941406 31.300781 27.140625 31.523438 C 27.035156 31.5 26.929688 31.457031 26.828125 31.414062 Z M 26.828125 31.414062 " fill-opacity="1" fill-rule="nonzero"/><path fill="#000000" d="M 20.53125 32.304688 C 20.445312 32.285156 20.328125 32.269531 20.214844 32.3125 C 20.0625 32.371094 19.96875 32.53125 20.007812 32.675781 C 20.035156 32.789062 20.125 32.851562 20.167969 32.882812 C 20.359375 33.019531 20.566406 33.136719 20.789062 33.226562 L 20.796875 33.226562 C 20.957031 33.292969 21.140625 33.367188 21.332031 33.378906 C 21.339844 33.382812 21.347656 33.382812 21.359375 33.382812 C 21.375 33.382812 21.394531 33.378906 21.417969 33.375 C 21.472656 33.359375 21.515625 33.332031 21.546875 33.289062 C 21.664062 33.136719 21.527344 32.917969 21.464844 32.847656 C 21.222656 32.574219 20.890625 32.378906 20.53125 32.304688 Z M 20.914062 32.941406 L 20.90625 32.9375 C 20.710938 32.859375 20.523438 32.753906 20.355469 32.632812 C 20.335938 32.621094 20.328125 32.613281 20.320312 32.605469 C 20.320312 32.605469 20.324219 32.601562 20.328125 32.601562 C 20.363281 32.589844 20.421875 32.597656 20.46875 32.609375 C 20.761719 32.671875 21.03125 32.828125 21.226562 33.050781 C 21.125 33.027344 21.019531 32.984375 20.914062 32.941406 Z M 20.914062 32.941406 " fill-opacity="1" fill-rule="nonzero"/><g clip-path="url(#d3664ca47a)"><path fill="#000000" d="M 14.921875 29.519531 C 14.769531 29.414062 14.597656 29.296875 14.398438 29.230469 C 14.160156 29.148438 13.917969 29.160156 13.734375 29.261719 L 13.691406 29.285156 L 13.671875 29.328125 C 13.582031 29.492188 13.628906 29.714844 13.785156 29.863281 C 13.90625 29.980469 14.0625 30.035156 14.1875 30.078125 C 14.21875 30.089844 14.265625 30.109375 14.320312 30.132812 C 14.546875 30.234375 14.753906 30.316406 14.921875 30.316406 C 15 30.316406 15.070312 30.296875 15.128906 30.253906 C 15.253906 30.160156 15.277344 30.054688 15.273438 29.980469 C 15.269531 29.78125 15.070312 29.621094 14.921875 29.519531 Z M 14.941406 30.003906 C 14.933594 30.007812 14.882812 30.015625 14.757812 29.972656 C 14.65625 29.941406 14.539062 29.890625 14.449219 29.851562 C 14.386719 29.824219 14.332031 29.800781 14.292969 29.785156 C 14.183594 29.746094 14.074219 29.710938 14.003906 29.640625 C 13.960938 29.605469 13.9375 29.550781 13.9375 29.511719 C 14.039062 29.476562 14.167969 29.480469 14.300781 29.523438 C 14.457031 29.574219 14.601562 29.675781 14.746094 29.773438 C 14.9375 29.90625 14.960938 29.972656 14.960938 29.984375 C 14.960938 29.988281 14.953125 29.996094 14.941406 30.003906 Z M 14.941406 30.003906 " fill-opacity="1" fill-rule="nonzero"/></g><path fill="#000000" d="M 19.082031 29.277344 C 18.929688 29.175781 18.773438 29.070312 18.597656 29.007812 C 18.421875 28.949219 18.222656 28.941406 18.058594 29.03125 C 17.996094 29.148438 18.046875 29.296875 18.144531 29.386719 C 18.238281 29.476562 18.363281 29.523438 18.488281 29.566406 C 18.648438 29.621094 19.125 29.882812 19.28125 29.765625 C 19.507812 29.597656 19.238281 29.386719 19.082031 29.277344 Z M 19.082031 29.277344 " fill-opacity="1" fill-rule="nonzero"/><path fill="#000000" d="M 15.808594 27.859375 C 15.878906 27.859375 15.957031 27.84375 16.015625 27.785156 C 16.054688 27.746094 16.097656 27.675781 16.074219 27.558594 C 16.054688 27.433594 15.957031 27.355469 15.902344 27.316406 C 15.734375 27.183594 15.539062 27.042969 15.296875 27.035156 C 15.082031 27.027344 14.957031 27.15625 14.941406 27.289062 C 14.925781 27.425781 15.019531 27.523438 15.050781 27.554688 C 15.152344 27.660156 15.28125 27.746094 15.421875 27.800781 C 15.5 27.832031 15.5625 27.835938 15.621094 27.839844 C 15.628906 27.839844 15.648438 27.84375 15.664062 27.84375 C 15.707031 27.851562 15.757812 27.859375 15.808594 27.859375 Z M 15.535156 27.511719 C 15.4375 27.476562 15.351562 27.417969 15.28125 27.347656 C 15.28125 27.347656 15.285156 27.347656 15.285156 27.347656 C 15.417969 27.351562 15.550781 27.4375 15.675781 27.53125 C 15.660156 27.53125 15.648438 27.53125 15.632812 27.527344 C 15.589844 27.527344 15.566406 27.523438 15.535156 27.511719 Z M 15.535156 27.511719 " fill-opacity="1" fill-rule="nonzero"/><path fill="#000000" d="M 18.007812 32.75 C 17.839844 32.617188 17.640625 32.476562 17.398438 32.46875 C 17.1875 32.460938 17.058594 32.589844 17.042969 32.722656 C 17.027344 32.859375 17.121094 32.957031 17.152344 32.988281 C 17.253906 33.09375 17.382812 33.179688 17.523438 33.234375 C 17.601562 33.265625 17.667969 33.269531 17.722656 33.273438 C 17.730469 33.273438 17.753906 33.277344 17.769531 33.277344 C 17.808594 33.285156 17.859375 33.292969 17.910156 33.292969 C 17.984375 33.292969 18.058594 33.277344 18.117188 33.21875 C 18.15625 33.179688 18.199219 33.109375 18.179688 32.992188 C 18.15625 32.867188 18.058594 32.789062 18.007812 32.75 Z M 17.738281 32.960938 C 17.691406 32.960938 17.667969 32.957031 17.636719 32.945312 C 17.542969 32.910156 17.453125 32.851562 17.382812 32.777344 C 17.386719 32.777344 17.386719 32.777344 17.390625 32.777344 C 17.523438 32.785156 17.652344 32.871094 17.777344 32.964844 C 17.765625 32.964844 17.75 32.960938 17.738281 32.960938 Z M 17.738281 32.960938 " fill-opacity="1" fill-rule="nonzero"/><path fill="#000000" d="M 22.757812 30.089844 C 22.839844 30.09375 23.082031 30.175781 23.050781 29.992188 C 23.039062 29.929688 22.988281 29.882812 22.9375 29.84375 C 22.785156 29.722656 22.613281 29.601562 22.421875 29.597656 C 22.335938 29.59375 22.234375 29.628906 22.226562 29.714844 C 22.21875 29.765625 22.253906 29.816406 22.292969 29.851562 C 22.378906 29.945312 22.488281 30.015625 22.609375 30.0625 C 22.660156 30.082031 22.703125 30.085938 22.757812 30.089844 Z M 22.757812 30.089844 " fill-opacity="1" fill-rule="nonzero"/><path fill="#000000" d="M 28.828125 28.328125 C 28.765625 28.40625 28.777344 28.519531 28.855469 28.582031 C 28.890625 28.609375 28.929688 28.621094 28.96875 28.621094 C 29.023438 28.621094 29.078125 28.597656 29.113281 28.550781 C 29.378906 28.21875 29.785156 27.988281 30.222656 27.921875 C 30.566406 27.871094 30.878906 27.71875 31.128906 27.480469 C 31.425781 27.199219 31.804688 27.011719 32.199219 26.949219 C 32.300781 26.9375 32.367188 26.84375 32.351562 26.746094 C 32.335938 26.644531 32.242188 26.578125 32.144531 26.59375 C 31.675781 26.667969 31.226562 26.886719 30.878906 27.21875 C 30.679688 27.40625 30.4375 27.523438 30.167969 27.566406 C 29.640625 27.644531 29.148438 27.921875 28.828125 28.328125 Z M 28.828125 28.328125 " fill-opacity="1" fill-rule="nonzero"/><path fill="#000000" d="M 32.242188 22.992188 C 32.164062 23.058594 32.152344 23.171875 32.214844 23.25 C 32.25 23.292969 32.304688 23.316406 32.355469 23.316406 C 32.398438 23.316406 32.4375 23.300781 32.472656 23.273438 C 32.769531 23.03125 33.078125 22.78125 33.421875 22.613281 C 33.679688 22.484375 34.070312 22.351562 34.46875 22.4375 C 34.480469 22.441406 34.492188 22.441406 34.503906 22.445312 C 34.574219 22.460938 34.664062 22.480469 34.761719 22.46875 C 34.875 22.457031 34.96875 22.398438 35.046875 22.355469 L 35.054688 22.347656 C 35.347656 22.171875 35.476562 22.136719 35.78125 22.046875 C 35.820312 22.035156 35.859375 22.023438 35.902344 22.011719 C 36 21.984375 36.054688 21.882812 36.023438 21.785156 C 35.996094 21.691406 35.894531 21.636719 35.796875 21.664062 C 35.753906 21.675781 35.714844 21.6875 35.679688 21.699219 C 35.359375 21.792969 35.199219 21.839844 34.863281 22.039062 L 34.855469 22.042969 C 34.804688 22.074219 34.753906 22.105469 34.714844 22.109375 C 34.683594 22.113281 34.636719 22.105469 34.585938 22.09375 C 34.574219 22.089844 34.558594 22.085938 34.546875 22.082031 C 34.042969 21.976562 33.570312 22.136719 33.261719 22.289062 C 32.878906 22.476562 32.554688 22.738281 32.242188 22.992188 Z M 32.242188 22.992188 " fill-opacity="1" fill-rule="nonzero"/><path fill="#000000" d="M 23.007812 27.042969 C 22.929688 27.105469 22.917969 27.21875 22.980469 27.296875 C 23.015625 27.34375 23.070312 27.363281 23.121094 27.363281 C 23.164062 27.363281 23.203125 27.351562 23.238281 27.324219 C 23.679688 26.96875 24.140625 26.601562 24.652344 26.351562 C 24.988281 26.191406 25.332031 26.09375 25.652344 26.066406 C 26.03125 26.039062 26.390625 25.886719 26.660156 25.640625 C 26.722656 25.589844 26.792969 25.535156 26.886719 25.472656 C 27.390625 25.148438 27.9375 24.90625 28.515625 24.753906 C 28.613281 24.726562 28.671875 24.628906 28.644531 24.53125 C 28.617188 24.433594 28.519531 24.378906 28.421875 24.402344 C 27.804688 24.566406 27.222656 24.824219 26.6875 25.171875 C 26.578125 25.242188 26.492188 25.304688 26.417969 25.375 C 26.203125 25.566406 25.921875 25.683594 25.625 25.707031 C 25.253906 25.734375 24.871094 25.84375 24.492188 26.027344 C 23.941406 26.292969 23.464844 26.675781 23.007812 27.042969 Z M 23.007812 27.042969 " fill-opacity="1" fill-rule="nonzero"/><path fill="#000000" d="M 27.710938 21.785156 C 27.363281 21.953125 27.035156 22.203125 26.652344 22.585938 C 26.578125 22.65625 26.578125 22.773438 26.652344 22.84375 C 26.6875 22.878906 26.734375 22.894531 26.78125 22.894531 C 26.828125 22.894531 26.875 22.878906 26.910156 22.84375 C 27.265625 22.488281 27.5625 22.261719 27.871094 22.109375 C 28.054688 22.019531 28.242188 21.957031 28.425781 21.925781 C 28.816406 21.863281 29.167969 21.675781 29.421875 21.398438 C 29.492188 21.320312 29.578125 21.25 29.675781 21.191406 C 29.921875 21.035156 30.214844 20.957031 30.496094 20.894531 C 30.59375 20.871094 30.65625 20.777344 30.632812 20.679688 C 30.613281 20.582031 30.515625 20.519531 30.414062 20.542969 C 30.121094 20.605469 29.777344 20.699219 29.480469 20.882812 C 29.355469 20.960938 29.246094 21.054688 29.148438 21.15625 C 28.953125 21.375 28.675781 21.519531 28.367188 21.570312 C 28.144531 21.605469 27.925781 21.679688 27.710938 21.785156 Z M 27.710938 21.785156 " fill-opacity="1" fill-rule="nonzero"/><path fill="#000000" d="M 17.910156 26.046875 C 17.816406 26.085938 17.769531 26.191406 17.808594 26.285156 C 17.835938 26.355469 17.90625 26.398438 17.976562 26.398438 C 18 26.398438 18.023438 26.390625 18.046875 26.382812 C 18.441406 26.226562 18.863281 26.011719 19.382812 25.71875 C 19.820312 25.46875 20.398438 25.175781 20.988281 25.128906 C 21.339844 25.105469 21.667969 24.972656 21.9375 24.753906 C 22.40625 24.371094 22.992188 24.140625 23.585938 24.101562 C 23.683594 24.09375 23.761719 24.007812 23.753906 23.910156 C 23.75 23.808594 23.660156 23.734375 23.5625 23.738281 C 22.890625 23.785156 22.234375 24.042969 21.707031 24.472656 C 21.496094 24.644531 21.238281 24.75 20.960938 24.769531 C 20.296875 24.820312 19.671875 25.136719 19.199219 25.40625 C 18.699219 25.691406 18.289062 25.894531 17.910156 26.046875 Z M 17.910156 26.046875 " fill-opacity="1" fill-rule="nonzero"/><path fill="#000000" d="M 35.335938 24.296875 C 35.269531 24.375 35.277344 24.488281 35.355469 24.554688 C 35.386719 24.582031 35.429688 24.597656 35.472656 24.597656 C 35.523438 24.597656 35.574219 24.574219 35.613281 24.535156 C 35.753906 24.367188 35.957031 24.25 36.179688 24.203125 C 36.445312 24.144531 36.695312 24.019531 36.90625 23.84375 C 37.117188 23.667969 37.382812 23.554688 37.652344 23.527344 C 37.75 23.519531 37.824219 23.429688 37.816406 23.332031 C 37.804688 23.230469 37.714844 23.160156 37.617188 23.167969 C 37.273438 23.199219 36.9375 23.34375 36.671875 23.566406 C 36.503906 23.707031 36.308594 23.804688 36.101562 23.847656 C 35.800781 23.914062 35.527344 24.074219 35.335938 24.296875 Z M 35.335938 24.296875 " fill-opacity="1" fill-rule="nonzero"/><path fill="#000000" d="M 26.738281 20.480469 C 26.789062 20.480469 26.835938 20.460938 26.875 20.421875 C 27.054688 20.222656 27.3125 20.097656 27.582031 20.074219 C 27.589844 20.070312 27.601562 20.070312 27.613281 20.070312 C 27.691406 20.0625 27.792969 20.054688 27.890625 20 C 27.953125 19.960938 27.996094 19.914062 28.03125 19.875 C 28.035156 19.867188 28.042969 19.863281 28.046875 19.855469 C 28.199219 19.691406 28.414062 19.59375 28.632812 19.582031 C 28.734375 19.574219 28.8125 19.488281 28.808594 19.390625 C 28.800781 19.289062 28.714844 19.214844 28.617188 19.21875 C 28.296875 19.234375 27.992188 19.378906 27.777344 19.609375 C 27.773438 19.617188 27.765625 19.625 27.757812 19.632812 C 27.738281 19.65625 27.71875 19.679688 27.703125 19.6875 C 27.679688 19.703125 27.632812 19.707031 27.582031 19.710938 C 27.570312 19.710938 27.558594 19.710938 27.546875 19.710938 C 27.1875 19.742188 26.84375 19.914062 26.601562 20.179688 C 26.535156 20.253906 26.539062 20.367188 26.617188 20.433594 C 26.648438 20.464844 26.695312 20.480469 26.738281 20.480469 Z M 26.738281 20.480469 " fill-opacity="1" fill-rule="nonzero"/><path fill="#000000" d="M 34.242188 32.898438 C 34.574219 32.539062 34.695312 32.039062 34.792969 31.640625 C 34.804688 31.589844 34.792969 31.535156 34.757812 31.5 C 34.722656 31.460938 34.671875 31.441406 34.621094 31.449219 L 33.882812 31.550781 C 33.679688 31.578125 33.449219 31.609375 33.246094 31.722656 C 33.1875 31.753906 33.128906 31.792969 33.074219 31.839844 C 32.921875 31.96875 32.804688 32.128906 32.699219 32.273438 C 32.683594 32.292969 32.667969 32.316406 32.648438 32.339844 C 32.457031 32.601562 32.167969 32.992188 32.25 33.328125 C 32.273438 33.429688 32.339844 33.566406 32.53125 33.660156 C 32.601562 33.695312 32.679688 33.714844 32.769531 33.714844 C 32.964844 33.714844 33.207031 33.628906 33.496094 33.464844 C 33.808594 33.289062 34.105469 33.046875 34.242188 32.898438 Z M 32.671875 33.382812 C 32.582031 33.339844 32.5625 33.289062 32.554688 33.257812 C 32.507812 33.0625 32.765625 32.710938 32.902344 32.523438 C 32.921875 32.5 32.9375 32.476562 32.953125 32.453125 C 33.046875 32.328125 33.152344 32.179688 33.277344 32.078125 C 33.316406 32.042969 33.355469 32.015625 33.398438 31.992188 C 33.550781 31.90625 33.742188 31.882812 33.925781 31.855469 L 34.433594 31.785156 C 34.347656 32.109375 34.234375 32.445312 34.011719 32.691406 C 33.894531 32.816406 33.621094 33.035156 33.339844 33.195312 C 32.890625 33.453125 32.714844 33.40625 32.671875 33.382812 Z M 32.671875 33.382812 " fill-opacity="1" fill-rule="nonzero"/><path fill="#000000" d="M 39.398438 28.664062 C 39.488281 28.746094 39.609375 28.804688 39.742188 28.824219 C 39.777344 28.828125 39.8125 28.832031 39.84375 28.832031 C 40.089844 28.832031 40.300781 28.699219 40.386719 28.488281 L 40.800781 27.480469 C 40.828125 27.414062 40.871094 27.316406 40.859375 27.207031 C 40.847656 27.117188 40.808594 27.035156 40.738281 26.964844 C 40.5625 26.78125 40.273438 26.757812 40.03125 26.90625 C 39.734375 27.09375 39.171875 27.820312 39.21875 28.289062 C 39.230469 28.4375 39.292969 28.566406 39.398438 28.664062 Z M 39.761719 27.660156 C 39.925781 27.410156 40.101562 27.230469 40.199219 27.171875 C 40.246094 27.140625 40.308594 27.121094 40.367188 27.121094 C 40.421875 27.121094 40.472656 27.136719 40.511719 27.179688 C 40.53125 27.199219 40.542969 27.21875 40.546875 27.238281 C 40.550781 27.273438 40.53125 27.324219 40.511719 27.363281 L 40.097656 28.371094 C 40.046875 28.496094 39.90625 28.535156 39.785156 28.515625 C 39.613281 28.492188 39.539062 28.367188 39.527344 28.261719 C 39.515625 28.125 39.601562 27.902344 39.761719 27.660156 Z M 39.761719 27.660156 " fill-opacity="1" fill-rule="nonzero"/><path fill="#000000" d="M 23.699219 22.261719 C 23.734375 22.261719 23.769531 22.257812 23.804688 22.25 L 25.015625 22.042969 C 25.097656 22.027344 25.207031 22.007812 25.304688 21.933594 C 25.378906 21.875 25.429688 21.789062 25.457031 21.6875 C 25.527344 21.421875 25.378906 21.140625 25.101562 21.007812 C 24.746094 20.839844 23.726562 20.746094 23.308594 21.066406 C 23.179688 21.164062 23.09375 21.292969 23.066406 21.445312 C 23.039062 21.578125 23.058594 21.722656 23.117188 21.855469 C 23.226562 22.105469 23.453125 22.261719 23.699219 22.261719 Z M 23.496094 21.3125 C 23.617188 21.21875 23.875 21.164062 24.1875 21.164062 C 24.199219 21.164062 24.214844 21.164062 24.226562 21.164062 C 24.566406 21.171875 24.847656 21.234375 24.964844 21.289062 C 25.082031 21.34375 25.191406 21.46875 25.15625 21.613281 C 25.148438 21.632812 25.136719 21.667969 25.109375 21.691406 C 25.078125 21.714844 25.011719 21.726562 24.960938 21.734375 L 23.75 21.945312 C 23.585938 21.972656 23.457031 21.855469 23.402344 21.730469 C 23.347656 21.605469 23.34375 21.429688 23.496094 21.3125 Z M 23.496094 21.3125 " fill-opacity="1" fill-rule="nonzero"/><path fill="#000000" d="M 38.960938 33.371094 C 38.671875 33.207031 38.363281 33.082031 38.046875 32.996094 C 37.308594 32.800781 37.027344 33.03125 36.921875 33.1875 C 36.773438 33.414062 36.820312 33.753906 37.039062 34.03125 C 37.167969 34.191406 37.34375 34.3125 37.535156 34.378906 C 37.636719 34.410156 37.742188 34.429688 37.851562 34.429688 C 37.976562 34.429688 38.101562 34.40625 38.222656 34.363281 C 38.382812 34.304688 38.511719 34.203125 38.625 34.113281 L 39.023438 33.800781 C 39.046875 33.785156 39.089844 33.75 39.113281 33.691406 C 39.144531 33.617188 39.128906 33.535156 39.074219 33.464844 C 39.039062 33.417969 38.992188 33.386719 38.960938 33.371094 Z M 38.429688 33.871094 C 38.328125 33.949219 38.226562 34.03125 38.117188 34.070312 C 37.746094 34.203125 37.445312 34.039062 37.285156 33.835938 C 37.152344 33.667969 37.109375 33.472656 37.183594 33.359375 C 37.242188 33.273438 37.363281 33.230469 37.535156 33.230469 C 37.65625 33.230469 37.800781 33.253906 37.964844 33.296875 C 38.242188 33.371094 38.507812 33.476562 38.757812 33.613281 Z M 38.429688 33.871094 " fill-opacity="1" fill-rule="nonzero"/><path fill="#000000" d="M 38.9375 25.152344 C 39.054688 25.191406 39.179688 25.214844 39.304688 25.214844 C 39.433594 25.214844 39.5625 25.191406 39.691406 25.152344 C 39.851562 25.097656 39.988281 25.003906 40.109375 24.921875 C 40.140625 24.898438 40.171875 24.878906 40.203125 24.855469 C 40.378906 24.742188 40.554688 24.625 40.542969 24.441406 C 40.53125 24.277344 40.375 24.183594 40.253906 24.125 C 40.015625 24.003906 39.746094 23.910156 39.503906 23.851562 C 39.210938 23.78125 38.957031 23.761719 38.757812 23.796875 C 38.507812 23.839844 38.382812 23.960938 38.320312 24.054688 C 38.1875 24.257812 38.222656 24.539062 38.414062 24.785156 C 38.542969 24.953125 38.730469 25.082031 38.9375 25.152344 Z M 38.585938 24.222656 C 38.632812 24.148438 38.757812 24.089844 38.976562 24.089844 C 39.097656 24.089844 39.25 24.109375 39.429688 24.152344 C 39.652344 24.207031 39.894531 24.292969 40.117188 24.402344 C 40.171875 24.429688 40.199219 24.449219 40.21875 24.460938 C 40.179688 24.5 40.089844 24.558594 40.03125 24.597656 C 40 24.621094 39.964844 24.644531 39.929688 24.667969 C 39.820312 24.742188 39.710938 24.816406 39.59375 24.855469 C 39.164062 24.996094 38.824219 24.804688 38.664062 24.597656 C 38.554688 24.460938 38.523438 24.3125 38.585938 24.222656 Z M 38.585938 24.222656 " fill-opacity="1" fill-rule="nonzero"/><path fill="#000000" d="M 26.121094 33.300781 C 26.164062 33.25 26.175781 33.183594 26.144531 33.125 C 25.882812 32.605469 25.503906 32.132812 25.054688 31.757812 C 24.972656 31.691406 24.726562 31.484375 24.460938 31.578125 C 24.292969 31.640625 24.308594 31.867188 24.347656 32.113281 C 24.375 32.296875 24.414062 32.488281 24.429688 32.53125 C 24.480469 32.710938 24.566406 32.976562 24.714844 33.1875 C 24.867188 33.40625 25.0625 33.539062 25.296875 33.578125 C 25.34375 33.589844 25.394531 33.59375 25.445312 33.59375 C 25.695312 33.59375 25.953125 33.484375 26.121094 33.300781 Z M 25.351562 33.273438 C 25.199219 33.25 25.078125 33.164062 24.972656 33.011719 C 24.847656 32.835938 24.773438 32.605469 24.730469 32.445312 C 24.699219 32.339844 24.640625 32.019531 24.636719 31.871094 C 24.691406 31.882812 24.765625 31.925781 24.855469 31.996094 C 25.242188 32.320312 25.570312 32.71875 25.8125 33.160156 C 25.683594 33.257812 25.511719 33.300781 25.351562 33.273438 Z M 25.351562 33.273438 " fill-opacity="1" fill-rule="nonzero"/><path fill="#000000" d="M 17.238281 31.574219 C 17.539062 31.425781 17.625 31.257812 17.644531 31.136719 C 17.660156 31.042969 17.648438 30.898438 17.492188 30.746094 C 17.296875 30.550781 16.96875 30.476562 16.742188 30.472656 C 16.324219 30.460938 15.910156 30.683594 15.683594 31.03125 C 15.664062 31.054688 15.628906 31.113281 15.632812 31.191406 C 15.644531 31.300781 15.730469 31.359375 15.761719 31.378906 C 16.074219 31.589844 16.394531 31.695312 16.699219 31.695312 C 16.882812 31.695312 17.058594 31.65625 17.222656 31.578125 C 17.226562 31.578125 17.234375 31.574219 17.238281 31.574219 Z M 17.089844 31.300781 C 16.859375 31.40625 16.480469 31.46875 15.980469 31.148438 C 16.152344 30.917969 16.445312 30.773438 16.734375 30.78125 C 16.984375 30.785156 17.1875 30.878906 17.273438 30.964844 C 17.304688 30.996094 17.34375 31.046875 17.335938 31.085938 C 17.328125 31.132812 17.261719 31.214844 17.101562 31.292969 C 17.097656 31.296875 17.09375 31.296875 17.089844 31.300781 Z M 17.089844 31.300781 " fill-opacity="1" fill-rule="nonzero"/><path fill="#000000" d="M 29.019531 27.042969 C 29.054688 26.835938 28.9375 26.664062 28.832031 26.558594 C 28.578125 26.304688 28.144531 26.210938 27.847656 26.203125 C 27.839844 26.203125 27.828125 26.203125 27.816406 26.203125 C 27.277344 26.203125 26.746094 26.488281 26.457031 26.9375 C 26.4375 26.964844 26.390625 27.035156 26.402344 27.121094 C 26.410156 27.242188 26.507812 27.308594 26.546875 27.335938 C 26.546875 27.335938 26.546875 27.335938 26.550781 27.335938 C 26.855469 27.539062 27.164062 27.671875 27.46875 27.726562 C 27.578125 27.746094 27.683594 27.757812 27.789062 27.757812 C 28.03125 27.757812 28.261719 27.703125 28.480469 27.601562 C 28.484375 27.597656 28.492188 27.597656 28.5 27.59375 C 28.886719 27.40625 28.996094 27.191406 29.019531 27.042969 Z M 28.710938 26.992188 C 28.695312 27.097656 28.5625 27.214844 28.363281 27.3125 C 28.355469 27.316406 28.351562 27.320312 28.34375 27.320312 C 28.15625 27.410156 27.96875 27.445312 27.789062 27.445312 C 27.382812 27.445312 27.011719 27.269531 26.734375 27.082031 C 26.976562 26.726562 27.410156 26.503906 27.84375 26.511719 C 28.195312 26.519531 28.484375 26.65625 28.609375 26.777344 C 28.6875 26.855469 28.722656 26.929688 28.710938 26.992188 Z M 28.710938 26.992188 " fill-opacity="1" fill-rule="nonzero"/><path fill="#000000" d="M 33.023438 23.980469 C 32.847656 23.9375 32.632812 23.9375 32.457031 23.976562 C 32.210938 24.03125 32.039062 24.164062 31.972656 24.351562 C 31.972656 24.355469 31.972656 24.359375 31.96875 24.363281 C 31.929688 24.484375 31.941406 24.613281 32 24.722656 C 32.082031 24.867188 32.238281 24.972656 32.46875 25.039062 C 32.582031 25.070312 32.691406 25.082031 32.792969 25.082031 C 32.957031 25.082031 33.101562 25.050781 33.195312 25.011719 C 33.421875 24.917969 33.546875 24.738281 33.53125 24.527344 C 33.511719 24.28125 33.292969 24.042969 33.023438 23.980469 Z M 33.074219 24.726562 C 32.964844 24.769531 32.753906 24.792969 32.554688 24.738281 C 32.410156 24.699219 32.3125 24.640625 32.277344 24.574219 C 32.257812 24.539062 32.253906 24.5 32.269531 24.457031 C 32.269531 24.453125 32.269531 24.453125 32.269531 24.453125 C 32.316406 24.316406 32.53125 24.257812 32.734375 24.257812 C 32.808594 24.257812 32.882812 24.265625 32.949219 24.28125 C 33.105469 24.320312 33.210938 24.453125 33.21875 24.550781 C 33.222656 24.625 33.175781 24.683594 33.074219 24.726562 Z M 33.074219 24.726562 " fill-opacity="1" fill-rule="nonzero"/><path fill="#000000" d="M 31.460938 21.558594 C 31.652344 21.742188 31.976562 21.804688 32.195312 21.804688 C 32.199219 21.804688 32.199219 21.804688 32.203125 21.804688 C 32.613281 21.800781 33.015625 21.574219 33.226562 21.226562 C 33.242188 21.199219 33.28125 21.140625 33.269531 21.0625 C 33.257812 20.957031 33.171875 20.902344 33.140625 20.882812 C 33.140625 20.882812 33.136719 20.882812 33.136719 20.882812 C 32.636719 20.566406 32.125 20.511719 31.699219 20.726562 C 31.695312 20.730469 31.691406 20.734375 31.683594 20.734375 C 31.394531 20.886719 31.3125 21.058594 31.296875 21.175781 C 31.285156 21.269531 31.300781 21.410156 31.460938 21.558594 Z M 31.609375 21.214844 C 31.613281 21.171875 31.675781 21.089844 31.832031 21.011719 C 31.835938 21.007812 31.839844 21.007812 31.84375 21.003906 C 31.945312 20.953125 32.085938 20.90625 32.253906 20.90625 C 32.441406 20.90625 32.664062 20.960938 32.925781 21.117188 C 32.761719 21.34375 32.484375 21.492188 32.203125 21.496094 C 32.199219 21.496094 32.195312 21.496094 32.191406 21.496094 C 31.957031 21.496094 31.757812 21.410156 31.675781 21.332031 C 31.640625 21.300781 31.601562 21.257812 31.609375 21.214844 Z M 31.609375 21.214844 " fill-opacity="1" fill-rule="nonzero"/><path fill="#000000" d="M 16.746094 24.5 C 17.054688 24.707031 17.363281 24.839844 17.671875 24.894531 C 17.78125 24.914062 17.886719 24.921875 17.996094 24.921875 C 18.234375 24.921875 18.46875 24.871094 18.6875 24.769531 C 18.695312 24.765625 18.699219 24.761719 18.707031 24.761719 C 19.09375 24.574219 19.207031 24.355469 19.230469 24.207031 C 19.265625 23.996094 19.148438 23.828125 19.039062 23.71875 C 18.785156 23.46875 18.347656 23.371094 18.054688 23.363281 C 18.042969 23.363281 18.03125 23.363281 18.019531 23.363281 C 17.480469 23.363281 16.945312 23.648438 16.652344 24.101562 C 16.632812 24.128906 16.589844 24.199219 16.597656 24.285156 C 16.609375 24.40625 16.710938 24.476562 16.746094 24.5 Z M 18.046875 23.671875 C 18.402344 23.679688 18.695312 23.816406 18.820312 23.9375 C 18.898438 24.019531 18.933594 24.09375 18.921875 24.15625 C 18.90625 24.261719 18.773438 24.382812 18.570312 24.480469 C 18.5625 24.484375 18.558594 24.484375 18.554688 24.488281 C 17.941406 24.773438 17.335938 24.519531 16.929688 24.25 C 17.175781 23.890625 17.609375 23.664062 18.046875 23.671875 Z M 18.046875 23.671875 " fill-opacity="1" fill-rule="nonzero"/></svg>