<svg xmlns="http://www.w3.org/2000/svg" xmlns:xlink="http://www.w3.org/1999/xlink" width="76" zoomAndPan="magnify" viewBox="0 0 56.879997 56.999997" height="76" preserveAspectRatio="xMidYMid meet" version="1.0"><defs><clipPath id="4404fb233e"><path d="M 0 0.0585938 L 56.761719 0.0585938 L 56.761719 56.9375 L 0 56.9375 Z M 0 0.0585938 " clip-rule="nonzero"/></clipPath><clipPath id="f63d78a366"><path d="M 0 0.0585938 L 56.761719 0.0585938 L 56.761719 56.9375 L 0 56.9375 Z M 0 0.0585938 " clip-rule="nonzero"/></clipPath><clipPath id="288a953de9"><path d="M 28.441406 0.0585938 C 12.734375 0.0585938 0 12.792969 0 28.5 C 0 44.207031 12.734375 56.941406 28.441406 56.941406 C 44.148438 56.941406 56.878906 44.207031 56.878906 28.5 C 56.878906 12.792969 44.148438 0.0585938 28.441406 0.0585938 " clip-rule="nonzero"/></clipPath><clipPath id="2fdcc4c27f"><path d="M 13.679688 17.378906 L 42.867188 17.378906 L 42.867188 39.832031 L 13.679688 39.832031 Z M 13.679688 17.378906 " clip-rule="nonzero"/></clipPath></defs><g clip-path="url(#4404fb233e)"><path fill="#e4e4e4" d="M 56.878906 28.5 C 56.878906 29.429688 56.835938 30.359375 56.742188 31.289062 C 56.652344 32.214844 56.515625 33.136719 56.332031 34.046875 C 56.152344 34.960938 55.925781 35.863281 55.65625 36.753906 C 55.386719 37.648438 55.070312 38.523438 54.714844 39.382812 C 54.359375 40.242188 53.960938 41.085938 53.523438 41.90625 C 53.082031 42.726562 52.605469 43.527344 52.085938 44.300781 C 51.570312 45.074219 51.015625 45.820312 50.425781 46.542969 C 49.832031 47.261719 49.207031 47.953125 48.550781 48.609375 C 47.890625 49.269531 47.203125 49.894531 46.480469 50.484375 C 45.761719 51.074219 45.015625 51.628906 44.242188 52.148438 C 43.464844 52.664062 42.667969 53.144531 41.847656 53.582031 C 41.023438 54.019531 40.183594 54.417969 39.324219 54.773438 C 38.464844 55.132812 37.585938 55.445312 36.695312 55.714844 C 35.804688 55.984375 34.902344 56.210938 33.988281 56.394531 C 33.074219 56.574219 32.15625 56.710938 31.226562 56.804688 C 30.300781 56.894531 29.371094 56.941406 28.441406 56.941406 C 27.507812 56.941406 26.578125 56.894531 25.652344 56.804688 C 24.726562 56.710938 23.804688 56.574219 22.890625 56.394531 C 21.976562 56.210938 21.074219 55.984375 20.183594 55.714844 C 19.292969 55.445312 18.417969 55.132812 17.554688 54.773438 C 16.695312 54.417969 15.855469 54.019531 15.035156 53.582031 C 14.210938 53.144531 13.414062 52.664062 12.640625 52.148438 C 11.863281 51.628906 11.117188 51.074219 10.398438 50.484375 C 9.679688 49.894531 8.988281 49.269531 8.328125 48.609375 C 7.671875 47.953125 7.046875 47.261719 6.457031 46.542969 C 5.863281 45.820312 5.308594 45.074219 4.792969 44.300781 C 4.277344 43.527344 3.796875 42.726562 3.359375 41.90625 C 2.917969 41.085938 2.519531 40.242188 2.164062 39.382812 C 1.808594 38.523438 1.496094 37.648438 1.226562 36.753906 C 0.953125 35.863281 0.726562 34.960938 0.546875 34.046875 C 0.363281 33.136719 0.226562 32.214844 0.136719 31.289062 C 0.046875 30.359375 0 29.429688 0 28.5 C 0 27.570312 0.046875 26.640625 0.136719 25.710938 C 0.226562 24.785156 0.363281 23.863281 0.546875 22.953125 C 0.726562 22.039062 0.953125 21.136719 1.226562 20.246094 C 1.496094 19.351562 1.808594 18.476562 2.164062 17.617188 C 2.519531 16.757812 2.917969 15.914062 3.359375 15.09375 C 3.796875 14.273438 4.277344 13.472656 4.792969 12.699219 C 5.308594 11.925781 5.863281 11.179688 6.457031 10.457031 C 7.046875 9.738281 7.671875 9.046875 8.328125 8.390625 C 8.988281 7.730469 9.679688 7.105469 10.398438 6.515625 C 11.117188 5.925781 11.863281 5.371094 12.640625 4.851562 C 13.414062 4.335938 14.210938 3.855469 15.035156 3.417969 C 15.855469 2.980469 16.695312 2.582031 17.554688 2.226562 C 18.417969 1.867188 19.292969 1.554688 20.183594 1.285156 C 21.074219 1.015625 21.976562 0.789062 22.890625 0.605469 C 23.804688 0.425781 24.726562 0.289062 25.652344 0.195312 C 26.578125 0.105469 27.507812 0.0585938 28.441406 0.0585938 C 29.371094 0.0585938 30.300781 0.105469 31.226562 0.195312 C 32.15625 0.289062 33.074219 0.425781 33.988281 0.605469 C 34.902344 0.789062 35.804688 1.015625 36.695312 1.285156 C 37.585938 1.554688 38.464844 1.867188 39.324219 2.226562 C 40.183594 2.582031 41.023438 2.980469 41.847656 3.417969 C 42.667969 3.855469 43.464844 4.335938 44.242188 4.851562 C 45.015625 5.371094 45.761719 5.925781 46.480469 6.515625 C 47.203125 7.105469 47.890625 7.730469 48.550781 8.390625 C 49.207031 9.046875 49.832031 9.738281 50.425781 10.457031 C 51.015625 11.179688 51.570312 11.925781 52.085938 12.699219 C 52.605469 13.472656 53.082031 14.273438 53.523438 15.09375 C 53.960938 15.914062 54.359375 16.757812 54.714844 17.617188 C 55.070312 18.476562 55.386719 19.351562 55.65625 20.246094 C 55.925781 21.136719 56.152344 22.039062 56.332031 22.953125 C 56.515625 23.863281 56.652344 24.785156 56.742188 25.710938 C 56.835938 26.640625 56.878906 27.570312 56.878906 28.5 Z M 56.878906 28.5 " fill-opacity="1" fill-rule="nonzero"/></g><path fill="#000000" d="M 36.546875 18.273438 C 34.140625 18.273438 32.183594 20.230469 32.183594 22.636719 C 32.183594 22.980469 32.460938 23.261719 32.804688 23.261719 C 33.152344 23.261719 33.429688 22.980469 33.429688 22.636719 C 33.429688 20.917969 34.828125 19.519531 36.546875 19.519531 C 36.894531 19.519531 37.171875 19.238281 37.171875 18.894531 C 37.171875 18.550781 36.894531 18.273438 36.546875 18.273438 Z M 36.546875 18.273438 " fill-opacity="1" fill-rule="nonzero"/><path fill="#000000" d="M 21.320312 23.625 C 20.835938 24.113281 20.835938 24.902344 21.320312 25.390625 C 21.5625 25.632812 21.882812 25.753906 22.203125 25.753906 C 22.523438 25.753906 22.84375 25.632812 23.085938 25.390625 C 23.570312 24.902344 23.570312 24.113281 23.085938 23.625 C 22.597656 23.140625 21.808594 23.140625 21.320312 23.625 Z M 21.320312 23.625 " fill-opacity="1" fill-rule="nonzero"/><path fill="#000000" d="M 33.796875 37.863281 C 34.039062 38.105469 34.359375 38.230469 34.675781 38.230469 C 34.996094 38.230469 35.316406 38.105469 35.558594 37.863281 C 36.046875 37.378906 36.046875 36.585938 35.558594 36.101562 C 35.074219 35.613281 34.28125 35.613281 33.796875 36.101562 C 33.308594 36.585938 33.308594 37.378906 33.796875 37.863281 Z M 33.796875 37.863281 " fill-opacity="1" fill-rule="nonzero"/><path fill="#000000" d="M 41.398438 17.785156 C 39.671875 16.058594 37.195312 15.386719 34.773438 16 C 31.84375 16.738281 29.800781 19.429688 29.683594 22.699219 C 29.671875 23.039062 29.566406 23.398438 29.394531 23.761719 C 25.953125 21.050781 22.585938 19.5 20.3125 19.519531 C 19.371094 19.546875 18.617188 19.835938 18.070312 20.378906 C 17.527344 20.921875 17.238281 21.679688 17.210938 22.621094 C 17.160156 24.503906 18.183594 27.035156 19.96875 29.710938 C 18.40625 30.019531 16.964844 30.75 15.84375 31.875 C 12.679688 35.035156 12.679688 40.179688 15.84375 43.34375 C 17.421875 44.921875 19.5 45.714844 21.578125 45.714844 C 23.652344 45.714844 25.730469 44.921875 27.3125 43.34375 C 28.433594 42.21875 29.167969 40.777344 29.472656 39.214844 C 32.085938 40.957031 34.558594 41.972656 36.425781 41.972656 C 36.472656 41.972656 36.519531 41.972656 36.566406 41.972656 C 37.507812 41.949219 38.261719 41.660156 38.804688 41.113281 C 39.351562 40.570312 39.640625 39.816406 39.664062 38.875 C 39.726562 36.59375 38.140625 33.234375 35.425781 29.792969 C 35.785156 29.621094 36.144531 29.511719 36.484375 29.5 C 39.753906 29.386719 42.449219 27.339844 43.1875 24.410156 C 43.796875 21.988281 43.128906 19.511719 41.398438 17.785156 Z M 26.429688 42.457031 C 23.753906 45.132812 19.402344 45.132812 16.726562 42.457031 C 14.050781 39.78125 14.050781 35.429688 16.726562 32.753906 C 17.804688 31.675781 19.230469 30.996094 20.761719 30.820312 C 21.050781 31.214844 21.351562 31.605469 21.671875 32 C 18.558594 31.914062 15.964844 34.480469 15.964844 37.605469 C 15.964844 40.699219 18.484375 43.21875 21.578125 43.21875 C 24.675781 43.21875 27.191406 40.699219 27.191406 37.605469 C 27.191406 37.578125 27.183594 37.546875 27.183594 37.515625 C 27.578125 37.835938 27.96875 38.132812 28.363281 38.421875 C 28.1875 39.957031 27.507812 41.378906 26.429688 42.457031 Z M 25.71875 36.273438 C 25.871094 36.730469 25.945312 37.167969 25.945312 37.605469 C 25.945312 40.011719 23.984375 41.972656 21.578125 41.972656 C 19.171875 41.972656 17.214844 40.011719 17.214844 37.605469 C 17.214844 35.199219 19.171875 33.238281 21.578125 33.238281 C 22.015625 33.238281 22.453125 33.3125 22.914062 33.464844 C 23.347656 33.949219 23.800781 34.429688 24.277344 34.90625 C 24.277344 34.90625 24.277344 34.90625 24.277344 34.910156 C 24.753906 35.382812 25.234375 35.835938 25.71875 36.273438 Z M 38.417969 38.835938 C 38.402344 39.449219 38.234375 39.917969 37.921875 40.230469 C 37.613281 40.539062 37.144531 40.707031 36.53125 40.722656 C 34.746094 40.78125 32.136719 39.605469 29.398438 37.636719 C 29.390625 37.628906 29.386719 37.621094 29.378906 37.613281 C 28.683594 37.113281 28.003906 36.578125 27.335938 36.019531 C 27.265625 35.957031 27.191406 35.898438 27.117188 35.832031 C 26.445312 35.257812 25.789062 34.65625 25.160156 34.027344 C 24.527344 33.394531 23.925781 32.734375 23.347656 32.0625 C 23.289062 31.992188 23.234375 31.925781 23.175781 31.855469 C 22.613281 31.1875 22.074219 30.503906 21.570312 29.804688 C 21.566406 29.796875 21.554688 29.796875 21.550781 29.789062 C 19.585938 27.054688 18.414062 24.453125 18.460938 22.65625 C 18.476562 22.042969 18.644531 21.574219 18.957031 21.261719 C 19.265625 20.949219 19.734375 20.785156 20.347656 20.765625 C 22.347656 20.691406 25.515625 22.261719 28.726562 24.820312 C 28.214844 25.480469 27.5625 26.105469 26.929688 26.605469 C 26.257812 27.140625 26.042969 28.097656 26.421875 28.882812 C 26.734375 29.527344 27.261719 30.449219 28 31.1875 C 28.734375 31.921875 29.65625 32.449219 30.304688 32.761719 C 30.5625 32.890625 30.839844 32.949219 31.117188 32.949219 C 31.675781 32.949219 32.21875 32.703125 32.578125 32.253906 C 33.078125 31.625 33.707031 30.972656 34.367188 30.457031 C 36.921875 33.671875 38.472656 36.847656 38.417969 38.835938 Z M 41.976562 24.105469 C 41.375 26.488281 39.148438 28.15625 36.441406 28.253906 C 34.265625 28.328125 32.1875 30.742188 31.601562 31.476562 C 31.425781 31.699219 31.109375 31.769531 30.847656 31.640625 C 30.289062 31.371094 29.492188 30.917969 28.878906 30.304688 C 28.269531 29.691406 27.816406 28.894531 27.542969 28.335938 C 27.417969 28.074219 27.484375 27.757812 27.707031 27.582031 C 28.445312 26.996094 30.855469 24.917969 30.933594 22.746094 C 31.027344 20.035156 32.695312 17.808594 35.078125 17.210938 C 35.566406 17.085938 36.054688 17.027344 36.535156 17.027344 C 38.027344 17.027344 39.449219 17.601562 40.515625 18.667969 C 41.929688 20.082031 42.476562 22.113281 41.976562 24.105469 Z M 41.976562 24.105469 " fill-opacity="1" fill-rule="nonzero"/><g clip-path="url(#f63d78a366)"><g clip-path="url(#288a953de9)"><path fill="#e4e4e4" d="M 0 0.0585938 L 56.878906 0.0585938 L 56.878906 56.941406 L 0 56.941406 Z M 0 0.0585938 " fill-opacity="1" fill-rule="nonzero"/></g></g><g clip-path="url(#2fdcc4c27f)"><path fill="#000000" d="M 41.925781 35.144531 C 40.21875 30.835938 35.722656 27.480469 28.921875 27.339844 C 28.335938 27.320312 27.710938 27.320312 27.117188 27.339844 C 26.082031 27.375 25.050781 27.480469 24.027344 27.664062 C 23.363281 27.777344 22.707031 27.9375 22.058594 28.136719 C 19.425781 28.921875 17.019531 30.511719 15.457031 32.734375 C 14.917969 33.488281 14.472656 34.289062 14.113281 35.144531 C 14.007812 35.398438 13.933594 35.664062 13.890625 35.933594 C 13.84375 36.207031 13.835938 36.484375 13.859375 36.757812 C 13.882812 37.035156 13.9375 37.300781 14.027344 37.5625 C 14.117188 37.824219 14.234375 38.070312 14.382812 38.300781 C 14.53125 38.53125 14.707031 38.742188 14.90625 38.925781 C 15.105469 39.113281 15.324219 39.273438 15.5625 39.40625 C 15.800781 39.535156 16.050781 39.636719 16.3125 39.703125 C 16.574219 39.769531 16.84375 39.804688 17.113281 39.804688 L 38.925781 39.804688 C 41.25 39.832031 42.867188 37.316406 41.925781 35.144531 Z M 32.003906 27.957031 C 32.292969 28.011719 32.582031 28.074219 32.871094 28.140625 C 32.019531 29.429688 31.441406 30.695312 30.941406 31.890625 C 30.757812 30.609375 31.011719 29.273438 31.695312 27.90625 C 31.800781 27.921875 31.902344 27.941406 32.003906 27.957031 Z M 27.472656 27.625 C 27.851562 27.617188 28.234375 27.617188 28.613281 27.625 C 27.617188 28.945312 26.886719 30.527344 26.3125 31.890625 C 26.117188 30.519531 26.417969 29.089844 27.210938 27.632812 C 27.300781 27.628906 27.386719 27.625 27.472656 27.625 Z M 23.699219 28.023438 C 22.820312 29.320312 22.207031 30.660156 21.6875 31.890625 C 21.527344 30.769531 21.703125 29.59375 22.214844 28.394531 C 22.707031 28.246094 23.1875 28.125 23.699219 28.023438 Z M 41.894531 36.738281 C 41.863281 37.117188 41.765625 37.476562 41.601562 37.820312 C 41.4375 38.160156 41.21875 38.460938 40.941406 38.71875 C 40.667969 38.976562 40.355469 39.171875 40.007812 39.308594 C 39.660156 39.445312 39.300781 39.515625 38.929688 39.511719 L 17.113281 39.511719 C 16.867188 39.511719 16.621094 39.480469 16.382812 39.421875 C 16.144531 39.359375 15.914062 39.265625 15.699219 39.148438 C 15.480469 39.027344 15.28125 38.882812 15.097656 38.710938 C 14.917969 38.542969 14.757812 38.351562 14.621094 38.140625 C 14.488281 37.929688 14.378906 37.703125 14.296875 37.464844 C 14.21875 37.230469 14.167969 36.984375 14.144531 36.734375 C 14.125 36.480469 14.132812 36.230469 14.171875 35.980469 C 14.210938 35.734375 14.28125 35.492188 14.378906 35.261719 C 14.726562 34.425781 15.164062 33.640625 15.6875 32.90625 C 17.175781 30.824219 19.242188 29.351562 21.863281 28.496094 C 21.328125 29.851562 21.203125 31.175781 21.496094 32.441406 C 21.511719 32.511719 21.554688 32.546875 21.628906 32.554688 C 21.699219 32.558594 21.746094 32.527344 21.769531 32.457031 C 22.214844 31.292969 23.164062 29.210938 24.113281 27.941406 C 25.027344 27.78125 25.949219 27.683594 26.878906 27.644531 C 26.03125 29.273438 25.773438 30.925781 26.125 32.441406 C 26.140625 32.511719 26.183594 32.550781 26.253906 32.554688 C 26.324219 32.558594 26.371094 32.527344 26.398438 32.460938 C 26.886719 31.183594 27.933594 28.902344 28.972656 27.636719 C 29.785156 27.667969 30.59375 27.742188 31.398438 27.859375 C 30.628906 29.433594 30.410156 30.972656 30.75 32.441406 C 30.765625 32.511719 30.808594 32.550781 30.878906 32.554688 C 30.949219 32.558594 31 32.527344 31.023438 32.460938 C 31.429688 31.398438 32.308594 29.457031 33.171875 28.214844 C 38.152344 29.488281 40.527344 32.574219 41.660156 35.261719 C 41.859375 35.734375 41.941406 36.226562 41.894531 36.738281 Z M 21.535156 23.097656 C 21.386719 22.578125 21.449219 22.007812 21.632812 21.515625 L 21.707031 21.335938 C 21.734375 21.277344 21.761719 21.21875 21.789062 21.164062 C 21.84375 21.046875 21.90625 20.9375 21.976562 20.832031 C 21.859375 21.535156 21.71875 22.273438 21.96875 22.957031 C 22.007812 23.0625 22.050781 23.167969 22.101562 23.277344 C 22.207031 23.496094 22.328125 23.71875 22.425781 23.949219 C 22.832031 24.8125 22.695312 25.804688 22.253906 26.609375 C 22.367188 25.484375 22.394531 24.839844 21.835938 23.824219 C 21.710938 23.589844 21.613281 23.347656 21.535156 23.097656 Z M 27.066406 19.644531 C 26.917969 19.125 26.980469 18.558594 27.167969 18.066406 L 27.238281 17.886719 C 27.265625 17.828125 27.292969 17.769531 27.320312 17.714844 C 27.378906 17.597656 27.441406 17.488281 27.507812 17.378906 C 27.390625 18.085938 27.253906 18.820312 27.5 19.503906 C 27.542969 19.613281 27.582031 19.71875 27.636719 19.824219 C 27.738281 20.046875 27.859375 20.265625 27.960938 20.496094 C 28.363281 21.363281 28.230469 22.355469 27.785156 23.160156 C 27.898438 22.03125 27.925781 21.390625 27.367188 20.375 C 27.246094 20.140625 27.144531 19.898438 27.066406 19.644531 Z M 32.582031 22.90625 C 32.429688 22.386719 32.492188 21.816406 32.679688 21.324219 L 32.75 21.144531 C 32.777344 21.085938 32.804688 21.027344 32.832031 20.972656 C 32.890625 20.859375 32.953125 20.746094 33.023438 20.640625 C 32.902344 21.347656 32.765625 22.082031 33.015625 22.765625 C 33.054688 22.871094 33.09375 22.976562 33.148438 23.085938 C 33.25 23.308594 33.371094 23.527344 33.472656 23.757812 C 33.878906 24.621094 33.742188 25.617188 33.300781 26.421875 C 33.414062 25.292969 33.441406 24.652344 32.882812 23.632812 C 32.757812 23.402344 32.660156 23.160156 32.582031 22.90625 Z M 32.582031 22.90625 " fill-opacity="1" fill-rule="nonzero"/></g></svg>