<svg xmlns="http://www.w3.org/2000/svg" xmlns:xlink="http://www.w3.org/1999/xlink" width="76" zoomAndPan="magnify" viewBox="0 0 56.879997 56.999997" height="76" preserveAspectRatio="xMidYMid meet" version="1.0"><defs><clipPath id="481cff0996"><path d="M 0 0.0585938 L 56.761719 0.0585938 L 56.761719 56.9375 L 0 56.9375 Z M 0 0.0585938 " clip-rule="nonzero"/></clipPath><clipPath id="484a33bec8"><path d="M 0 0.0585938 L 56.761719 0.0585938 L 56.761719 56.9375 L 0 56.9375 Z M 0 0.0585938 " clip-rule="nonzero"/></clipPath><clipPath id="8d8caa3674"><path d="M 28.441406 0.0585938 C 12.734375 0.0585938 0 12.792969 0 28.5 C 0 44.207031 12.734375 56.941406 28.441406 56.941406 C 44.148438 56.941406 56.878906 44.207031 56.878906 28.5 C 56.878906 12.792969 44.148438 0.0585938 28.441406 0.0585938 " clip-rule="nonzero"/></clipPath><clipPath id="ca74fefaf3"><path d="M 12 21.769531 L 44.921875 21.769531 L 44.921875 35.242188 L 12 35.242188 Z M 12 21.769531 " clip-rule="nonzero"/></clipPath></defs><g clip-path="url(#481cff0996)"><path fill="#e4e4e4" d="M 56.878906 28.5 C 56.878906 29.429688 56.835938 30.359375 56.742188 31.289062 C 56.652344 32.214844 56.515625 33.136719 56.332031 34.046875 C 56.152344 34.960938 55.925781 35.863281 55.65625 36.753906 C 55.386719 37.648438 55.070312 38.523438 54.714844 39.382812 C 54.359375 40.242188 53.960938 41.085938 53.523438 41.90625 C 53.082031 42.726562 52.605469 43.527344 52.085938 44.300781 C 51.570312 45.074219 51.015625 45.820312 50.425781 46.542969 C 49.832031 47.261719 49.207031 47.953125 48.550781 48.609375 C 47.890625 49.269531 47.203125 49.894531 46.480469 50.484375 C 45.761719 51.074219 45.015625 51.628906 44.242188 52.148438 C 43.464844 52.664062 42.667969 53.144531 41.847656 53.582031 C 41.023438 54.019531 40.183594 54.417969 39.324219 54.773438 C 38.464844 55.132812 37.585938 55.445312 36.695312 55.714844 C 35.804688 55.984375 34.902344 56.210938 33.988281 56.394531 C 33.074219 56.574219 32.15625 56.710938 31.226562 56.804688 C 30.300781 56.894531 29.371094 56.941406 28.441406 56.941406 C 27.507812 56.941406 26.578125 56.894531 25.652344 56.804688 C 24.726562 56.710938 23.804688 56.574219 22.890625 56.394531 C 21.976562 56.210938 21.074219 55.984375 20.183594 55.714844 C 19.292969 55.445312 18.417969 55.132812 17.554688 54.773438 C 16.695312 54.417969 15.855469 54.019531 15.035156 53.582031 C 14.210938 53.144531 13.414062 52.664062 12.640625 52.148438 C 11.863281 51.628906 11.117188 51.074219 10.398438 50.484375 C 9.679688 49.894531 8.988281 49.269531 8.328125 48.609375 C 7.671875 47.953125 7.046875 47.261719 6.457031 46.542969 C 5.863281 45.820312 5.308594 45.074219 4.792969 44.300781 C 4.277344 43.527344 3.796875 42.726562 3.359375 41.90625 C 2.917969 41.085938 2.519531 40.242188 2.164062 39.382812 C 1.808594 38.523438 1.496094 37.648438 1.226562 36.753906 C 0.953125 35.863281 0.726562 34.960938 0.546875 34.046875 C 0.363281 33.136719 0.226562 32.214844 0.136719 31.289062 C 0.046875 30.359375 0 29.429688 0 28.5 C 0 27.570312 0.046875 26.640625 0.136719 25.710938 C 0.226562 24.785156 0.363281 23.863281 0.546875 22.953125 C 0.726562 22.039062 0.953125 21.136719 1.226562 20.246094 C 1.496094 19.351562 1.808594 18.476562 2.164062 17.617188 C 2.519531 16.757812 2.917969 15.914062 3.359375 15.09375 C 3.796875 14.273438 4.277344 13.472656 4.792969 12.699219 C 5.308594 11.925781 5.863281 11.179688 6.457031 10.457031 C 7.046875 9.738281 7.671875 9.046875 8.328125 8.390625 C 8.988281 7.730469 9.679688 7.105469 10.398438 6.515625 C 11.117188 5.925781 11.863281 5.371094 12.640625 4.851562 C 13.414062 4.335938 14.210938 3.855469 15.035156 3.417969 C 15.855469 2.980469 16.695312 2.582031 17.554688 2.226562 C 18.417969 1.867188 19.292969 1.554688 20.183594 1.285156 C 21.074219 1.015625 21.976562 0.789062 22.890625 0.605469 C 23.804688 0.425781 24.726562 0.289062 25.652344 0.195312 C 26.578125 0.105469 27.507812 0.0585938 28.441406 0.0585938 C 29.371094 0.0585938 30.300781 0.105469 31.226562 0.195312 C 32.15625 0.289062 33.074219 0.425781 33.988281 0.605469 C 34.902344 0.789062 35.804688 1.015625 36.695312 1.285156 C 37.585938 1.554688 38.464844 1.867188 39.324219 2.226562 C 40.183594 2.582031 41.023438 2.980469 41.847656 3.417969 C 42.667969 3.855469 43.464844 4.335938 44.242188 4.851562 C 45.015625 5.371094 45.761719 5.925781 46.480469 6.515625 C 47.203125 7.105469 47.890625 7.730469 48.550781 8.390625 C 49.207031 9.046875 49.832031 9.738281 50.425781 10.457031 C 51.015625 11.179688 51.570312 11.925781 52.085938 12.699219 C 52.605469 13.472656 53.082031 14.273438 53.523438 15.09375 C 53.960938 15.914062 54.359375 16.757812 54.714844 17.617188 C 55.070312 18.476562 55.386719 19.351562 55.65625 20.246094 C 55.925781 21.136719 56.152344 22.039062 56.332031 22.953125 C 56.515625 23.863281 56.652344 24.785156 56.742188 25.710938 C 56.835938 26.640625 56.878906 27.570312 56.878906 28.5 Z M 56.878906 28.5 " fill-opacity="1" fill-rule="nonzero"/></g><path fill="#000000" d="M 36.546875 18.273438 C 34.140625 18.273438 32.183594 20.230469 32.183594 22.636719 C 32.183594 22.980469 32.460938 23.261719 32.804688 23.261719 C 33.152344 23.261719 33.429688 22.980469 33.429688 22.636719 C 33.429688 20.917969 34.828125 19.519531 36.546875 19.519531 C 36.894531 19.519531 37.171875 19.238281 37.171875 18.894531 C 37.171875 18.550781 36.894531 18.273438 36.546875 18.273438 Z M 36.546875 18.273438 " fill-opacity="1" fill-rule="nonzero"/><path fill="#000000" d="M 21.320312 23.625 C 20.835938 24.113281 20.835938 24.902344 21.320312 25.390625 C 21.5625 25.632812 21.882812 25.753906 22.203125 25.753906 C 22.523438 25.753906 22.84375 25.632812 23.085938 25.390625 C 23.570312 24.902344 23.570312 24.113281 23.085938 23.625 C 22.597656 23.140625 21.808594 23.140625 21.320312 23.625 Z M 21.320312 23.625 " fill-opacity="1" fill-rule="nonzero"/><path fill="#000000" d="M 33.796875 37.863281 C 34.039062 38.105469 34.359375 38.230469 34.675781 38.230469 C 34.996094 38.230469 35.316406 38.105469 35.558594 37.863281 C 36.046875 37.378906 36.046875 36.585938 35.558594 36.101562 C 35.074219 35.613281 34.28125 35.613281 33.796875 36.101562 C 33.308594 36.585938 33.308594 37.378906 33.796875 37.863281 Z M 33.796875 37.863281 " fill-opacity="1" fill-rule="nonzero"/><path fill="#000000" d="M 41.398438 17.785156 C 39.671875 16.058594 37.195312 15.386719 34.773438 16 C 31.84375 16.738281 29.800781 19.429688 29.683594 22.699219 C 29.671875 23.039062 29.566406 23.398438 29.394531 23.761719 C 25.953125 21.050781 22.585938 19.5 20.3125 19.519531 C 19.371094 19.546875 18.617188 19.835938 18.070312 20.378906 C 17.527344 20.921875 17.238281 21.679688 17.210938 22.621094 C 17.160156 24.503906 18.183594 27.035156 19.96875 29.710938 C 18.40625 30.019531 16.964844 30.75 15.84375 31.875 C 12.679688 35.035156 12.679688 40.179688 15.84375 43.34375 C 17.421875 44.921875 19.5 45.714844 21.578125 45.714844 C 23.652344 45.714844 25.730469 44.921875 27.3125 43.34375 C 28.433594 42.21875 29.167969 40.777344 29.472656 39.214844 C 32.085938 40.957031 34.558594 41.972656 36.425781 41.972656 C 36.472656 41.972656 36.519531 41.972656 36.566406 41.972656 C 37.507812 41.949219 38.261719 41.660156 38.804688 41.113281 C 39.351562 40.570312 39.640625 39.816406 39.664062 38.875 C 39.726562 36.59375 38.140625 33.234375 35.425781 29.792969 C 35.785156 29.621094 36.144531 29.511719 36.484375 29.5 C 39.753906 29.386719 42.449219 27.339844 43.1875 24.410156 C 43.796875 21.988281 43.128906 19.511719 41.398438 17.785156 Z M 26.429688 42.457031 C 23.753906 45.132812 19.402344 45.132812 16.726562 42.457031 C 14.050781 39.78125 14.050781 35.429688 16.726562 32.753906 C 17.804688 31.675781 19.230469 30.996094 20.761719 30.820312 C 21.050781 31.214844 21.351562 31.605469 21.671875 32 C 18.558594 31.914062 15.964844 34.480469 15.964844 37.605469 C 15.964844 40.699219 18.484375 43.21875 21.578125 43.21875 C 24.675781 43.21875 27.191406 40.699219 27.191406 37.605469 C 27.191406 37.578125 27.183594 37.546875 27.183594 37.515625 C 27.578125 37.835938 27.96875 38.132812 28.363281 38.421875 C 28.1875 39.957031 27.507812 41.378906 26.429688 42.457031 Z M 25.71875 36.273438 C 25.871094 36.730469 25.945312 37.167969 25.945312 37.605469 C 25.945312 40.011719 23.984375 41.972656 21.578125 41.972656 C 19.171875 41.972656 17.214844 40.011719 17.214844 37.605469 C 17.214844 35.199219 19.171875 33.238281 21.578125 33.238281 C 22.015625 33.238281 22.453125 33.3125 22.914062 33.464844 C 23.347656 33.949219 23.800781 34.429688 24.277344 34.90625 C 24.277344 34.90625 24.277344 34.90625 24.277344 34.910156 C 24.753906 35.382812 25.234375 35.835938 25.71875 36.273438 Z M 38.417969 38.835938 C 38.402344 39.449219 38.234375 39.917969 37.921875 40.230469 C 37.613281 40.539062 37.144531 40.707031 36.53125 40.722656 C 34.746094 40.78125 32.136719 39.605469 29.398438 37.636719 C 29.390625 37.628906 29.386719 37.621094 29.378906 37.613281 C 28.683594 37.113281 28.003906 36.578125 27.335938 36.019531 C 27.265625 35.957031 27.191406 35.898438 27.117188 35.832031 C 26.445312 35.257812 25.789062 34.65625 25.160156 34.027344 C 24.527344 33.394531 23.925781 32.734375 23.347656 32.0625 C 23.289062 31.992188 23.234375 31.925781 23.175781 31.855469 C 22.613281 31.1875 22.074219 30.503906 21.570312 29.804688 C 21.566406 29.796875 21.554688 29.796875 21.550781 29.789062 C 19.585938 27.054688 18.414062 24.453125 18.460938 22.65625 C 18.476562 22.042969 18.644531 21.574219 18.957031 21.261719 C 19.265625 20.949219 19.734375 20.785156 20.347656 20.765625 C 22.347656 20.691406 25.515625 22.261719 28.726562 24.820312 C 28.214844 25.480469 27.5625 26.105469 26.929688 26.605469 C 26.257812 27.140625 26.042969 28.097656 26.421875 28.882812 C 26.734375 29.527344 27.261719 30.449219 28 31.1875 C 28.734375 31.921875 29.65625 32.449219 30.304688 32.761719 C 30.5625 32.890625 30.839844 32.949219 31.117188 32.949219 C 31.675781 32.949219 32.21875 32.703125 32.578125 32.253906 C 33.078125 31.625 33.707031 30.972656 34.367188 30.457031 C 36.921875 33.671875 38.472656 36.847656 38.417969 38.835938 Z M 41.976562 24.105469 C 41.375 26.488281 39.148438 28.15625 36.441406 28.253906 C 34.265625 28.328125 32.1875 30.742188 31.601562 31.476562 C 31.425781 31.699219 31.109375 31.769531 30.847656 31.640625 C 30.289062 31.371094 29.492188 30.917969 28.878906 30.304688 C 28.269531 29.691406 27.816406 28.894531 27.542969 28.335938 C 27.417969 28.074219 27.484375 27.757812 27.707031 27.582031 C 28.445312 26.996094 30.855469 24.917969 30.933594 22.746094 C 31.027344 20.035156 32.695312 17.808594 35.078125 17.210938 C 35.566406 17.085938 36.054688 17.027344 36.535156 17.027344 C 38.027344 17.027344 39.449219 17.601562 40.515625 18.667969 C 41.929688 20.082031 42.476562 22.113281 41.976562 24.105469 Z M 41.976562 24.105469 " fill-opacity="1" fill-rule="nonzero"/><g clip-path="url(#484a33bec8)"><g clip-path="url(#8d8caa3674)"><path fill="#e4e4e4" d="M 0 0.0585938 L 56.878906 0.0585938 L 56.878906 56.941406 L 0 56.941406 Z M 0 0.0585938 " fill-opacity="1" fill-rule="nonzero"/></g></g><g clip-path="url(#ca74fefaf3)"><path fill="#000000" d="M 41.402344 33.371094 C 41.988281 33.371094 41.988281 32.453125 41.402344 32.453125 C 40.8125 32.453125 40.8125 33.371094 41.402344 33.371094 Z M 31.578125 29.664062 C 32.167969 29.664062 32.167969 28.75 31.578125 28.75 C 30.988281 28.75 30.988281 29.664062 31.578125 29.664062 Z M 41.402344 29.984375 C 41.988281 29.984375 41.988281 29.070312 41.402344 29.070312 C 40.8125 29.070312 40.8125 29.984375 41.402344 29.984375 Z M 40.070312 31.804688 C 40.660156 31.804688 40.660156 30.890625 40.070312 30.890625 C 39.484375 30.890625 39.480469 31.804688 40.070312 31.804688 Z M 37.550781 33.371094 C 38.136719 33.371094 38.140625 32.453125 37.550781 32.453125 C 36.960938 32.453125 36.960938 33.371094 37.550781 33.371094 Z M 35.308594 30.824219 C 35.898438 30.824219 35.898438 29.910156 35.308594 29.910156 C 34.722656 29.910156 34.722656 30.824219 35.308594 30.824219 Z M 32.621094 32.609375 C 33.207031 32.609375 33.210938 31.695312 32.621094 31.695312 C 32.035156 31.695312 32.03125 32.609375 32.621094 32.609375 Z M 43.152344 27.871094 C 42.097656 25.421875 39.941406 23.359375 37.285156 22.816406 C 36.304688 22.613281 35.25 22.6875 34.253906 22.6875 C 32.570312 22.6875 30.886719 22.6875 29.207031 22.6875 C 27.785156 22.6875 26.363281 22.699219 24.941406 22.703125 C 27.992188 24.3125 30.027344 27.734375 30.058594 31.179688 C 30.03125 32.4375 29.453125 33.550781 28.550781 34.28125 L 39.410156 34.28125 C 40.007812 34.28125 40.65625 34.34375 41.25 34.246094 C 42.546875 34.03125 43.601562 32.976562 43.816406 31.675781 C 44.019531 30.433594 43.644531 29.011719 43.152344 27.871094 Z M 24.101562 34.28125 C 24.410156 34.28125 24.71875 34.285156 25.023438 34.289062 C 25.039062 34.285156 25.050781 34.28125 25.066406 34.28125 L 26.027344 34.28125 C 27.746094 34.25 29.109375 32.902344 29.144531 31.179688 C 29.105469 27.152344 25.941406 22.984375 21.753906 22.703125 C 17.988281 22.449219 14.75 25.410156 13.730469 28.882812 C 13.238281 30.566406 13.117188 32.601562 14.722656 33.722656 C 15.507812 34.273438 16.363281 34.28125 17.265625 34.28125 Z M 43.996094 33.53125 C 43.234375 34.578125 42.035156 35.175781 40.75 35.199219 C 38.035156 35.246094 35.3125 35.199219 32.59375 35.199219 L 26.042969 35.199219 C 25.167969 35.214844 24.289062 35.199219 23.414062 35.199219 C 21.128906 35.199219 18.84375 35.230469 16.558594 35.199219 C 14.890625 35.171875 13.386719 34.21875 12.761719 32.648438 C 12.050781 30.867188 12.695312 28.617188 13.507812 26.976562 C 14.964844 24.035156 17.929688 21.855469 21.160156 21.78125 C 21.195312 21.773438 21.230469 21.769531 21.269531 21.769531 C 21.355469 21.773438 21.441406 21.773438 21.523438 21.773438 C 24.738281 21.78125 27.953125 21.773438 31.167969 21.773438 C 32.597656 21.773438 34.03125 21.773438 35.464844 21.773438 C 37.226562 21.769531 38.882812 22.148438 40.367188 23.132812 C 42.625 24.628906 44.238281 27.121094 44.652344 29.800781 C 44.855469 31.109375 44.808594 32.425781 43.996094 33.53125 Z M 15.945312 29.488281 C 15.730469 30.03125 14.847656 29.792969 15.066406 29.246094 C 16.261719 26.253906 19.347656 24.363281 22.550781 25.046875 C 24.25 25.410156 25.722656 26.527344 26.363281 28.164062 C 26.84375 29.394531 26.847656 30.945312 26.027344 32.035156 C 25.125 33.226562 23.34375 33.480469 21.953125 33.519531 C 20.53125 33.5625 18.679688 33.367188 17.644531 32.261719 C 16.523438 31.0625 17.230469 29.308594 18.28125 28.320312 C 19.371094 27.289062 21.1875 26.515625 22.679688 27.0625 C 24.074219 27.574219 24.664062 29.527344 23.539062 30.609375 C 22.59375 31.511719 20.652344 31.59375 19.933594 30.367188 C 19.636719 29.855469 20.425781 29.394531 20.722656 29.902344 C 21.269531 30.839844 23.148438 30.335938 23.222656 29.28125 C 23.339844 27.605469 21.351562 27.667969 20.285156 28.101562 C 19.214844 28.53125 17.875 29.617188 17.976562 30.910156 C 18.066406 32.007812 19.519531 32.375 20.394531 32.515625 C 21.65625 32.722656 23.085938 32.652344 24.285156 32.1875 C 25.21875 31.824219 25.722656 31.0625 25.773438 30.0625 C 25.917969 27.003906 22.640625 25.296875 19.9375 25.9375 C 18.6875 26.230469 17.636719 27.011719 16.851562 28.007812 C 16.585938 28.347656 16.351562 28.710938 16.148438 29.089844 C 16.082031 29.210938 16.023438 29.335938 15.960938 29.460938 C 15.90625 29.578125 15.9375 29.519531 15.945312 29.488281 " fill-opacity="1" fill-rule="nonzero"/></g></svg>