<svg xmlns="http://www.w3.org/2000/svg" xmlns:xlink="http://www.w3.org/1999/xlink" width="76" zoomAndPan="magnify" viewBox="0 0 56.879997 56.999997" height="76" preserveAspectRatio="xMidYMid meet" version="1.0"><defs><clipPath id="914fdbef64"><path d="M 0 0.0585938 L 56.761719 0.0585938 L 56.761719 56.9375 L 0 56.9375 Z M 0 0.0585938 " clip-rule="nonzero"/></clipPath><clipPath id="6206bb025a"><path d="M 0 0.0585938 L 56.761719 0.0585938 L 56.761719 56.9375 L 0 56.9375 Z M 0 0.0585938 " clip-rule="nonzero"/></clipPath><clipPath id="0231488dbf"><path d="M 28.441406 0.0585938 C 12.734375 0.0585938 0 12.792969 0 28.5 C 0 44.207031 12.734375 56.941406 28.441406 56.941406 C 44.148438 56.941406 56.878906 44.207031 56.878906 28.5 C 56.878906 12.792969 44.148438 0.0585938 28.441406 0.0585938 " clip-rule="nonzero"/></clipPath><clipPath id="5d6083f223"><path d="M 13.363281 17.851562 L 43.300781 17.851562 L 43.300781 38.808594 L 13.363281 38.808594 Z M 13.363281 17.851562 " clip-rule="nonzero"/></clipPath></defs><g clip-path="url(#914fdbef64)"><path fill="#e4e4e4" d="M 56.878906 28.5 C 56.878906 29.429688 56.835938 30.359375 56.742188 31.289062 C 56.652344 32.214844 56.515625 33.136719 56.332031 34.046875 C 56.152344 34.960938 55.925781 35.863281 55.65625 36.753906 C 55.386719 37.648438 55.070312 38.523438 54.714844 39.382812 C 54.359375 40.242188 53.960938 41.085938 53.523438 41.90625 C 53.082031 42.726562 52.605469 43.527344 52.085938 44.300781 C 51.570312 45.074219 51.015625 45.820312 50.425781 46.542969 C 49.832031 47.261719 49.207031 47.953125 48.550781 48.609375 C 47.890625 49.269531 47.203125 49.894531 46.480469 50.484375 C 45.761719 51.074219 45.015625 51.628906 44.242188 52.148438 C 43.464844 52.664062 42.667969 53.144531 41.847656 53.582031 C 41.023438 54.019531 40.183594 54.417969 39.324219 54.773438 C 38.464844 55.132812 37.585938 55.445312 36.695312 55.714844 C 35.804688 55.984375 34.902344 56.210938 33.988281 56.394531 C 33.074219 56.574219 32.15625 56.710938 31.226562 56.804688 C 30.300781 56.894531 29.371094 56.941406 28.441406 56.941406 C 27.507812 56.941406 26.578125 56.894531 25.652344 56.804688 C 24.726562 56.710938 23.804688 56.574219 22.890625 56.394531 C 21.976562 56.210938 21.074219 55.984375 20.183594 55.714844 C 19.292969 55.445312 18.417969 55.132812 17.554688 54.773438 C 16.695312 54.417969 15.855469 54.019531 15.035156 53.582031 C 14.210938 53.144531 13.414062 52.664062 12.640625 52.148438 C 11.863281 51.628906 11.117188 51.074219 10.398438 50.484375 C 9.679688 49.894531 8.988281 49.269531 8.328125 48.609375 C 7.671875 47.953125 7.046875 47.261719 6.457031 46.542969 C 5.863281 45.820312 5.308594 45.074219 4.792969 44.300781 C 4.277344 43.527344 3.796875 42.726562 3.359375 41.90625 C 2.917969 41.085938 2.519531 40.242188 2.164062 39.382812 C 1.808594 38.523438 1.496094 37.648438 1.226562 36.753906 C 0.953125 35.863281 0.726562 34.960938 0.546875 34.046875 C 0.363281 33.136719 0.226562 32.214844 0.136719 31.289062 C 0.046875 30.359375 0 29.429688 0 28.5 C 0 27.570312 0.046875 26.640625 0.136719 25.710938 C 0.226562 24.785156 0.363281 23.863281 0.546875 22.953125 C 0.726562 22.039062 0.953125 21.136719 1.226562 20.246094 C 1.496094 19.351562 1.808594 18.476562 2.164062 17.617188 C 2.519531 16.757812 2.917969 15.914062 3.359375 15.09375 C 3.796875 14.273438 4.277344 13.472656 4.792969 12.699219 C 5.308594 11.925781 5.863281 11.179688 6.457031 10.457031 C 7.046875 9.738281 7.671875 9.046875 8.328125 8.390625 C 8.988281 7.730469 9.679688 7.105469 10.398438 6.515625 C 11.117188 5.925781 11.863281 5.371094 12.640625 4.851562 C 13.414062 4.335938 14.210938 3.855469 15.035156 3.417969 C 15.855469 2.980469 16.695312 2.582031 17.554688 2.226562 C 18.417969 1.867188 19.292969 1.554688 20.183594 1.285156 C 21.074219 1.015625 21.976562 0.789062 22.890625 0.605469 C 23.804688 0.425781 24.726562 0.289062 25.652344 0.195312 C 26.578125 0.105469 27.507812 0.0585938 28.441406 0.0585938 C 29.371094 0.0585938 30.300781 0.105469 31.226562 0.195312 C 32.15625 0.289062 33.074219 0.425781 33.988281 0.605469 C 34.902344 0.789062 35.804688 1.015625 36.695312 1.285156 C 37.585938 1.554688 38.464844 1.867188 39.324219 2.226562 C 40.183594 2.582031 41.023438 2.980469 41.847656 3.417969 C 42.667969 3.855469 43.464844 4.335938 44.242188 4.851562 C 45.015625 5.371094 45.761719 5.925781 46.480469 6.515625 C 47.203125 7.105469 47.890625 7.730469 48.550781 8.390625 C 49.207031 9.046875 49.832031 9.738281 50.425781 10.457031 C 51.015625 11.179688 51.570312 11.925781 52.085938 12.699219 C 52.605469 13.472656 53.082031 14.273438 53.523438 15.09375 C 53.960938 15.914062 54.359375 16.757812 54.714844 17.617188 C 55.070312 18.476562 55.386719 19.351562 55.65625 20.246094 C 55.925781 21.136719 56.152344 22.039062 56.332031 22.953125 C 56.515625 23.863281 56.652344 24.785156 56.742188 25.710938 C 56.835938 26.640625 56.878906 27.570312 56.878906 28.5 Z M 56.878906 28.5 " fill-opacity="1" fill-rule="nonzero"/></g><path fill="#000000" d="M 36.546875 18.273438 C 34.140625 18.273438 32.183594 20.230469 32.183594 22.636719 C 32.183594 22.980469 32.460938 23.261719 32.804688 23.261719 C 33.152344 23.261719 33.429688 22.980469 33.429688 22.636719 C 33.429688 20.917969 34.828125 19.519531 36.546875 19.519531 C 36.894531 19.519531 37.171875 19.238281 37.171875 18.894531 C 37.171875 18.550781 36.894531 18.273438 36.546875 18.273438 Z M 36.546875 18.273438 " fill-opacity="1" fill-rule="nonzero"/><path fill="#000000" d="M 21.320312 23.625 C 20.835938 24.113281 20.835938 24.902344 21.320312 25.390625 C 21.5625 25.632812 21.882812 25.753906 22.203125 25.753906 C 22.523438 25.753906 22.84375 25.632812 23.085938 25.390625 C 23.570312 24.902344 23.570312 24.113281 23.085938 23.625 C 22.597656 23.140625 21.808594 23.140625 21.320312 23.625 Z M 21.320312 23.625 " fill-opacity="1" fill-rule="nonzero"/><path fill="#000000" d="M 33.796875 37.863281 C 34.039062 38.105469 34.359375 38.230469 34.675781 38.230469 C 34.996094 38.230469 35.316406 38.105469 35.558594 37.863281 C 36.046875 37.378906 36.046875 36.585938 35.558594 36.101562 C 35.074219 35.613281 34.28125 35.613281 33.796875 36.101562 C 33.308594 36.585938 33.308594 37.378906 33.796875 37.863281 Z M 33.796875 37.863281 " fill-opacity="1" fill-rule="nonzero"/><path fill="#000000" d="M 41.398438 17.785156 C 39.671875 16.058594 37.195312 15.386719 34.773438 16 C 31.84375 16.738281 29.800781 19.429688 29.683594 22.699219 C 29.671875 23.039062 29.566406 23.398438 29.394531 23.761719 C 25.953125 21.050781 22.585938 19.5 20.3125 19.519531 C 19.371094 19.546875 18.617188 19.835938 18.070312 20.378906 C 17.527344 20.921875 17.238281 21.679688 17.210938 22.621094 C 17.160156 24.503906 18.183594 27.035156 19.96875 29.710938 C 18.40625 30.019531 16.964844 30.75 15.84375 31.875 C 12.679688 35.035156 12.679688 40.179688 15.84375 43.34375 C 17.421875 44.921875 19.5 45.714844 21.578125 45.714844 C 23.652344 45.714844 25.730469 44.921875 27.3125 43.34375 C 28.433594 42.21875 29.167969 40.777344 29.472656 39.214844 C 32.085938 40.957031 34.558594 41.972656 36.425781 41.972656 C 36.472656 41.972656 36.519531 41.972656 36.566406 41.972656 C 37.507812 41.949219 38.261719 41.660156 38.804688 41.113281 C 39.351562 40.570312 39.640625 39.816406 39.664062 38.875 C 39.726562 36.59375 38.140625 33.234375 35.425781 29.792969 C 35.785156 29.621094 36.144531 29.511719 36.484375 29.5 C 39.753906 29.386719 42.449219 27.339844 43.1875 24.410156 C 43.796875 21.988281 43.128906 19.511719 41.398438 17.785156 Z M 26.429688 42.457031 C 23.753906 45.132812 19.402344 45.132812 16.726562 42.457031 C 14.050781 39.78125 14.050781 35.429688 16.726562 32.753906 C 17.804688 31.675781 19.230469 30.996094 20.761719 30.820312 C 21.050781 31.214844 21.351562 31.605469 21.671875 32 C 18.558594 31.914062 15.964844 34.480469 15.964844 37.605469 C 15.964844 40.699219 18.484375 43.21875 21.578125 43.21875 C 24.675781 43.21875 27.191406 40.699219 27.191406 37.605469 C 27.191406 37.578125 27.183594 37.546875 27.183594 37.515625 C 27.578125 37.835938 27.96875 38.132812 28.363281 38.421875 C 28.1875 39.957031 27.507812 41.378906 26.429688 42.457031 Z M 25.71875 36.273438 C 25.871094 36.730469 25.945312 37.167969 25.945312 37.605469 C 25.945312 40.011719 23.984375 41.972656 21.578125 41.972656 C 19.171875 41.972656 17.214844 40.011719 17.214844 37.605469 C 17.214844 35.199219 19.171875 33.238281 21.578125 33.238281 C 22.015625 33.238281 22.453125 33.3125 22.914062 33.464844 C 23.347656 33.949219 23.800781 34.429688 24.277344 34.90625 C 24.277344 34.90625 24.277344 34.90625 24.277344 34.910156 C 24.753906 35.382812 25.234375 35.835938 25.71875 36.273438 Z M 38.417969 38.835938 C 38.402344 39.449219 38.234375 39.917969 37.921875 40.230469 C 37.613281 40.539062 37.144531 40.707031 36.53125 40.722656 C 34.746094 40.78125 32.136719 39.605469 29.398438 37.636719 C 29.390625 37.628906 29.386719 37.621094 29.378906 37.613281 C 28.683594 37.113281 28.003906 36.578125 27.335938 36.019531 C 27.265625 35.957031 27.191406 35.898438 27.117188 35.832031 C 26.445312 35.257812 25.789062 34.65625 25.160156 34.027344 C 24.527344 33.394531 23.925781 32.734375 23.347656 32.0625 C 23.289062 31.992188 23.234375 31.925781 23.175781 31.855469 C 22.613281 31.1875 22.074219 30.503906 21.570312 29.804688 C 21.566406 29.796875 21.554688 29.796875 21.550781 29.789062 C 19.585938 27.054688 18.414062 24.453125 18.460938 22.65625 C 18.476562 22.042969 18.644531 21.574219 18.957031 21.261719 C 19.265625 20.949219 19.734375 20.785156 20.347656 20.765625 C 22.347656 20.691406 25.515625 22.261719 28.726562 24.820312 C 28.214844 25.480469 27.5625 26.105469 26.929688 26.605469 C 26.257812 27.140625 26.042969 28.097656 26.421875 28.882812 C 26.734375 29.527344 27.261719 30.449219 28 31.1875 C 28.734375 31.921875 29.65625 32.449219 30.304688 32.761719 C 30.5625 32.890625 30.839844 32.949219 31.117188 32.949219 C 31.675781 32.949219 32.21875 32.703125 32.578125 32.253906 C 33.078125 31.625 33.707031 30.972656 34.367188 30.457031 C 36.921875 33.671875 38.472656 36.847656 38.417969 38.835938 Z M 41.976562 24.105469 C 41.375 26.488281 39.148438 28.15625 36.441406 28.253906 C 34.265625 28.328125 32.1875 30.742188 31.601562 31.476562 C 31.425781 31.699219 31.109375 31.769531 30.847656 31.640625 C 30.289062 31.371094 29.492188 30.917969 28.878906 30.304688 C 28.269531 29.691406 27.816406 28.894531 27.542969 28.335938 C 27.417969 28.074219 27.484375 27.757812 27.707031 27.582031 C 28.445312 26.996094 30.855469 24.917969 30.933594 22.746094 C 31.027344 20.035156 32.695312 17.808594 35.078125 17.210938 C 35.566406 17.085938 36.054688 17.027344 36.535156 17.027344 C 38.027344 17.027344 39.449219 17.601562 40.515625 18.667969 C 41.929688 20.082031 42.476562 22.113281 41.976562 24.105469 Z M 41.976562 24.105469 " fill-opacity="1" fill-rule="nonzero"/><g clip-path="url(#6206bb025a)"><g clip-path="url(#0231488dbf)"><path fill="#e4e4e4" d="M 0 0.0585938 L 56.878906 0.0585938 L 56.878906 56.941406 L 0 56.941406 Z M 0 0.0585938 " fill-opacity="1" fill-rule="nonzero"/></g></g><g clip-path="url(#5d6083f223)"><path fill="#000000" d="M 40.222656 30.527344 L 40.222656 28.945312 C 40.222656 28.945312 40.222656 28.945312 40.222656 28.941406 L 40.222656 22.5625 C 40.222656 19.921875 35 17.851562 28.332031 17.851562 C 21.667969 17.851562 16.445312 19.921875 16.445312 22.5625 L 16.445312 30.527344 C 14.4375 31.417969 13.371094 32.503906 13.371094 33.671875 C 13.371094 36.554688 19.945312 38.808594 28.332031 38.808594 C 36.722656 38.808594 43.292969 36.554688 43.292969 33.671875 C 43.292969 32.503906 42.230469 31.417969 40.222656 30.527344 Z M 16.917969 28.707031 C 17.792969 28.796875 18.160156 29.378906 18.550781 29.992188 C 18.835938 30.445312 19.132812 30.914062 19.636719 31.132812 C 20.222656 31.390625 20.691406 31.183594 21.144531 30.984375 C 21.550781 30.804688 21.972656 30.617188 22.550781 30.726562 C 23.253906 30.851562 23.609375 31.296875 23.988281 31.765625 C 24.378906 32.25 24.78125 32.75 25.546875 32.835938 C 25.621094 32.847656 25.6875 32.851562 25.757812 32.851562 C 26.378906 32.851562 26.800781 32.515625 27.210938 32.191406 C 27.640625 31.851562 28.085938 31.5 28.820312 31.46875 C 29.546875 31.441406 30.007812 31.75 30.460938 32.042969 C 30.949219 32.363281 31.453125 32.695312 32.199219 32.554688 C 32.949219 32.410156 33.332031 31.898438 33.667969 31.449219 C 34 31.003906 34.285156 30.621094 34.882812 30.511719 C 35.421875 30.414062 35.832031 30.613281 36.269531 30.824219 C 36.75 31.054688 37.246094 31.292969 37.898438 31.128906 C 38.5625 30.957031 39.269531 30.378906 39.75 29.773438 L 39.75 31.664062 C 39.75 33.960938 34.519531 35.902344 28.332031 35.902344 C 22.148438 35.902344 16.917969 33.960938 16.917969 31.664062 Z M 28.332031 18.324219 C 34.519531 18.324219 39.746094 20.265625 39.746094 22.5625 C 39.746094 24.859375 34.519531 26.800781 28.332031 26.800781 C 22.144531 26.800781 16.917969 24.859375 16.917969 22.5625 C 16.917969 20.265625 22.144531 18.324219 28.332031 18.324219 Z M 28.332031 27.273438 C 33.816406 27.273438 38.320312 25.871094 39.746094 23.90625 L 39.746094 28.890625 C 39.441406 29.566406 38.53125 30.476562 37.777344 30.671875 C 37.296875 30.796875 36.917969 30.613281 36.476562 30.398438 C 36.011719 30.175781 35.488281 29.921875 34.796875 30.046875 C 34.015625 30.191406 33.628906 30.710938 33.285156 31.171875 C 32.960938 31.605469 32.679688 31.980469 32.109375 32.089844 C 31.554688 32.195312 31.1875 31.957031 30.722656 31.652344 C 30.230469 31.328125 29.671875 30.960938 28.800781 31 C 27.910156 31.035156 27.378906 31.453125 26.914062 31.824219 C 26.480469 32.164062 26.140625 32.433594 25.601562 32.371094 C 25.03125 32.304688 24.71875 31.917969 24.359375 31.472656 C 23.960938 30.980469 23.511719 30.421875 22.636719 30.261719 C 21.914062 30.128906 21.378906 30.363281 20.949219 30.554688 C 20.527344 30.742188 20.222656 30.875 19.828125 30.703125 C 19.457031 30.539062 19.210938 30.152344 18.953125 29.742188 C 18.550781 29.109375 18.058594 28.328125 16.917969 28.234375 L 16.917969 23.90625 C 18.34375 25.871094 22.847656 27.273438 28.332031 27.273438 Z M 28.332031 38.339844 C 20.480469 38.339844 13.847656 36.203125 13.847656 33.671875 C 13.847656 32.753906 14.765625 31.824219 16.445312 31.042969 L 16.445312 31.664062 C 16.445312 34.304688 21.667969 36.375 28.332031 36.375 C 35 36.375 40.222656 34.304688 40.222656 31.664062 L 40.222656 31.042969 C 41.902344 31.824219 42.820312 32.753906 42.820312 33.671875 C 42.820312 36.203125 36.183594 38.339844 28.332031 38.339844 Z M 28.332031 38.339844 " fill-opacity="1" fill-rule="nonzero"/></g><path fill="#000000" d="M 25.617188 23.332031 C 25.617188 23.332031 25.617188 23.332031 25.621094 23.332031 C 25.683594 23.332031 25.742188 23.308594 25.785156 23.265625 C 26.820312 22.257812 27.242188 21.121094 26.878906 20.300781 C 26.617188 19.699219 26.226562 19.492188 25.949219 19.429688 C 25.402344 19.304688 24.960938 19.632812 24.878906 19.699219 C 24.660156 19.871094 24.542969 20.09375 24.480469 20.28125 C 24.296875 20.195312 24.050781 20.117188 23.773438 20.136719 C 23.667969 20.144531 23.121094 20.210938 22.8125 20.675781 C 22.65625 20.914062 22.515625 21.328125 22.742188 21.945312 C 23.042969 22.769531 24.171875 23.3125 25.617188 23.332031 Z M 23.210938 20.933594 C 23.398438 20.648438 23.769531 20.609375 23.8125 20.605469 C 23.832031 20.605469 23.851562 20.605469 23.871094 20.605469 C 24.207031 20.605469 24.484375 20.835938 24.484375 20.835938 C 24.554688 20.898438 24.648438 20.914062 24.734375 20.878906 C 24.820312 20.839844 24.875 20.761719 24.878906 20.671875 C 24.878906 20.667969 24.898438 20.285156 25.175781 20.0625 C 25.210938 20.039062 25.5 19.808594 25.839844 19.886719 C 26.015625 19.929688 26.257812 20.066406 26.445312 20.488281 C 26.710938 21.101562 26.351562 22.023438 25.523438 22.859375 C 24.34375 22.820312 23.410156 22.394531 23.1875 21.785156 C 23.027344 21.351562 23.113281 21.082031 23.210938 20.933594 Z M 23.210938 20.933594 " fill-opacity="1" fill-rule="nonzero"/><path fill="#000000" d="M 31.007812 23.808594 C 31.050781 23.855469 31.109375 23.882812 31.175781 23.882812 C 31.191406 23.882812 31.207031 23.882812 31.222656 23.882812 C 32.226562 23.882812 32.992188 23.515625 33.226562 22.921875 C 33.40625 22.472656 33.308594 22.164062 33.195312 21.980469 C 32.980469 21.640625 32.597656 21.574219 32.488281 21.5625 C 32.3125 21.542969 32.164062 21.574219 32.039062 21.625 C 31.988281 21.503906 31.90625 21.367188 31.773438 21.253906 C 31.6875 21.183594 31.375 20.957031 30.980469 21.039062 C 30.769531 21.082031 30.476562 21.222656 30.269531 21.664062 C 29.996094 22.246094 30.28125 23.066406 31.007812 23.808594 Z M 30.703125 21.859375 C 30.824219 21.601562 30.972656 21.519531 31.074219 21.5 C 31.101562 21.492188 31.125 21.492188 31.148438 21.492188 C 31.3125 21.492188 31.449219 21.601562 31.464844 21.613281 C 31.632812 21.757812 31.65625 22 31.65625 22.003906 C 31.660156 22.09375 31.71875 22.171875 31.804688 22.203125 C 31.886719 22.238281 31.984375 22.222656 32.054688 22.160156 C 32.054688 22.160156 32.226562 22.003906 32.4375 22.027344 C 32.460938 22.03125 32.683594 22.058594 32.792969 22.230469 C 32.871094 22.359375 32.871094 22.539062 32.785156 22.75 C 32.632812 23.136719 32.035156 23.398438 31.277344 23.410156 C 30.757812 22.847656 30.527344 22.234375 30.703125 21.859375 Z M 30.703125 21.859375 " fill-opacity="1" fill-rule="nonzero"/><path fill="#000000" d="M 28.734375 21.167969 C 28.773438 21.191406 28.820312 21.203125 28.863281 21.203125 C 28.878906 21.203125 28.898438 21.203125 28.914062 21.199219 C 29.75 21.011719 30.316406 20.558594 30.394531 20.019531 C 30.4375 19.703125 30.363281 19.425781 30.175781 19.242188 C 29.976562 19.046875 29.695312 19.003906 29.5 19.03125 C 29.371094 19.046875 29.261719 19.09375 29.175781 19.148438 C 29.109375 19.066406 29.019531 18.984375 28.90625 18.925781 C 28.726562 18.835938 28.449219 18.785156 28.195312 18.902344 C 28.027344 18.980469 27.8125 19.15625 27.726562 19.558594 C 27.617188 20.089844 28.003906 20.703125 28.734375 21.167969 Z M 28.191406 19.652344 C 28.226562 19.484375 28.296875 19.375 28.394531 19.328125 C 28.433594 19.3125 28.472656 19.304688 28.511719 19.304688 C 28.605469 19.304688 28.683594 19.34375 28.6875 19.347656 C 28.828125 19.417969 28.886719 19.589844 28.886719 19.589844 C 28.914062 19.679688 28.992188 19.742188 29.082031 19.753906 C 29.171875 19.769531 29.261719 19.726562 29.3125 19.652344 C 29.316406 19.652344 29.414062 19.515625 29.558594 19.496094 C 29.566406 19.496094 29.738281 19.476562 29.839844 19.578125 C 29.917969 19.652344 29.945312 19.785156 29.921875 19.953125 C 29.878906 20.265625 29.472656 20.566406 28.90625 20.714844 C 28.414062 20.378906 28.128906 19.960938 28.191406 19.652344 Z M 28.191406 19.652344 " fill-opacity="1" fill-rule="nonzero"/></svg>