<svg xmlns="http://www.w3.org/2000/svg" xmlns:xlink="http://www.w3.org/1999/xlink" width="76" zoomAndPan="magnify" viewBox="0 0 56.879997 56.999997" height="76" preserveAspectRatio="xMidYMid meet" version="1.0"><defs><clipPath id="736d55e0ac"><path d="M 0 0.0585938 L 56.761719 0.0585938 L 56.761719 56.9375 L 0 56.9375 Z M 0 0.0585938 " clip-rule="nonzero"/></clipPath><clipPath id="bf08a02fde"><path d="M 0 0.0585938 L 56.761719 0.0585938 L 56.761719 56.9375 L 0 56.9375 Z M 0 0.0585938 " clip-rule="nonzero"/></clipPath><clipPath id="5c734dcba6"><path d="M 28.441406 0.0585938 C 12.734375 0.0585938 0 12.792969 0 28.5 C 0 44.207031 12.734375 56.941406 28.441406 56.941406 C 44.148438 56.941406 56.878906 44.207031 56.878906 28.5 C 56.878906 12.792969 44.148438 0.0585938 28.441406 0.0585938 " clip-rule="nonzero"/></clipPath><clipPath id="91c76a63ed"><path d="M 17.0625 17.554688 L 39.515625 17.554688 L 39.515625 39.257812 L 17.0625 39.257812 Z M 17.0625 17.554688 " clip-rule="nonzero"/></clipPath></defs><g clip-path="url(#736d55e0ac)"><path fill="#e4e4e4" d="M 56.878906 28.5 C 56.878906 29.429688 56.835938 30.359375 56.742188 31.289062 C 56.652344 32.214844 56.515625 33.136719 56.332031 34.046875 C 56.152344 34.960938 55.925781 35.863281 55.65625 36.753906 C 55.386719 37.648438 55.070312 38.523438 54.714844 39.382812 C 54.359375 40.242188 53.960938 41.085938 53.523438 41.90625 C 53.082031 42.726562 52.605469 43.527344 52.085938 44.300781 C 51.570312 45.074219 51.015625 45.820312 50.425781 46.542969 C 49.832031 47.261719 49.207031 47.953125 48.550781 48.609375 C 47.890625 49.269531 47.203125 49.894531 46.480469 50.484375 C 45.761719 51.074219 45.015625 51.628906 44.242188 52.148438 C 43.464844 52.664062 42.667969 53.144531 41.847656 53.582031 C 41.023438 54.019531 40.183594 54.417969 39.324219 54.773438 C 38.464844 55.132812 37.585938 55.445312 36.695312 55.714844 C 35.804688 55.984375 34.902344 56.210938 33.988281 56.394531 C 33.074219 56.574219 32.15625 56.710938 31.226562 56.804688 C 30.300781 56.894531 29.371094 56.941406 28.441406 56.941406 C 27.507812 56.941406 26.578125 56.894531 25.652344 56.804688 C 24.726562 56.710938 23.804688 56.574219 22.890625 56.394531 C 21.976562 56.210938 21.074219 55.984375 20.183594 55.714844 C 19.292969 55.445312 18.417969 55.132812 17.554688 54.773438 C 16.695312 54.417969 15.855469 54.019531 15.035156 53.582031 C 14.210938 53.144531 13.414062 52.664062 12.640625 52.148438 C 11.863281 51.628906 11.117188 51.074219 10.398438 50.484375 C 9.679688 49.894531 8.988281 49.269531 8.328125 48.609375 C 7.671875 47.953125 7.046875 47.261719 6.457031 46.542969 C 5.863281 45.820312 5.308594 45.074219 4.792969 44.300781 C 4.277344 43.527344 3.796875 42.726562 3.359375 41.90625 C 2.917969 41.085938 2.519531 40.242188 2.164062 39.382812 C 1.808594 38.523438 1.496094 37.648438 1.226562 36.753906 C 0.953125 35.863281 0.726562 34.960938 0.546875 34.046875 C 0.363281 33.136719 0.226562 32.214844 0.136719 31.289062 C 0.046875 30.359375 0 29.429688 0 28.5 C 0 27.570312 0.046875 26.640625 0.136719 25.710938 C 0.226562 24.785156 0.363281 23.863281 0.546875 22.953125 C 0.726562 22.039062 0.953125 21.136719 1.226562 20.246094 C 1.496094 19.351562 1.808594 18.476562 2.164062 17.617188 C 2.519531 16.757812 2.917969 15.914062 3.359375 15.09375 C 3.796875 14.273438 4.277344 13.472656 4.792969 12.699219 C 5.308594 11.925781 5.863281 11.179688 6.457031 10.457031 C 7.046875 9.738281 7.671875 9.046875 8.328125 8.390625 C 8.988281 7.730469 9.679688 7.105469 10.398438 6.515625 C 11.117188 5.925781 11.863281 5.371094 12.640625 4.851562 C 13.414062 4.335938 14.210938 3.855469 15.035156 3.417969 C 15.855469 2.980469 16.695312 2.582031 17.554688 2.226562 C 18.417969 1.867188 19.292969 1.554688 20.183594 1.285156 C 21.074219 1.015625 21.976562 0.789062 22.890625 0.605469 C 23.804688 0.425781 24.726562 0.289062 25.652344 0.195312 C 26.578125 0.105469 27.507812 0.0585938 28.441406 0.0585938 C 29.371094 0.0585938 30.300781 0.105469 31.226562 0.195312 C 32.15625 0.289062 33.074219 0.425781 33.988281 0.605469 C 34.902344 0.789062 35.804688 1.015625 36.695312 1.285156 C 37.585938 1.554688 38.464844 1.867188 39.324219 2.226562 C 40.183594 2.582031 41.023438 2.980469 41.847656 3.417969 C 42.667969 3.855469 43.464844 4.335938 44.242188 4.851562 C 45.015625 5.371094 45.761719 5.925781 46.480469 6.515625 C 47.203125 7.105469 47.890625 7.730469 48.550781 8.390625 C 49.207031 9.046875 49.832031 9.738281 50.425781 10.457031 C 51.015625 11.179688 51.570312 11.925781 52.085938 12.699219 C 52.605469 13.472656 53.082031 14.273438 53.523438 15.09375 C 53.960938 15.914062 54.359375 16.757812 54.714844 17.617188 C 55.070312 18.476562 55.386719 19.351562 55.65625 20.246094 C 55.925781 21.136719 56.152344 22.039062 56.332031 22.953125 C 56.515625 23.863281 56.652344 24.785156 56.742188 25.710938 C 56.835938 26.640625 56.878906 27.570312 56.878906 28.5 Z M 56.878906 28.5 " fill-opacity="1" fill-rule="nonzero"/></g><path fill="#000000" d="M 36.546875 18.273438 C 34.140625 18.273438 32.183594 20.230469 32.183594 22.636719 C 32.183594 22.980469 32.460938 23.261719 32.804688 23.261719 C 33.152344 23.261719 33.429688 22.980469 33.429688 22.636719 C 33.429688 20.917969 34.828125 19.519531 36.546875 19.519531 C 36.894531 19.519531 37.171875 19.238281 37.171875 18.894531 C 37.171875 18.550781 36.894531 18.273438 36.546875 18.273438 Z M 36.546875 18.273438 " fill-opacity="1" fill-rule="nonzero"/><path fill="#000000" d="M 21.320312 23.625 C 20.835938 24.113281 20.835938 24.902344 21.320312 25.390625 C 21.5625 25.632812 21.882812 25.753906 22.203125 25.753906 C 22.523438 25.753906 22.84375 25.632812 23.085938 25.390625 C 23.570312 24.902344 23.570312 24.113281 23.085938 23.625 C 22.597656 23.140625 21.808594 23.140625 21.320312 23.625 Z M 21.320312 23.625 " fill-opacity="1" fill-rule="nonzero"/><path fill="#000000" d="M 33.796875 37.863281 C 34.039062 38.105469 34.359375 38.230469 34.675781 38.230469 C 34.996094 38.230469 35.316406 38.105469 35.558594 37.863281 C 36.046875 37.378906 36.046875 36.585938 35.558594 36.101562 C 35.074219 35.613281 34.28125 35.613281 33.796875 36.101562 C 33.308594 36.585938 33.308594 37.378906 33.796875 37.863281 Z M 33.796875 37.863281 " fill-opacity="1" fill-rule="nonzero"/><path fill="#000000" d="M 41.398438 17.785156 C 39.671875 16.058594 37.195312 15.386719 34.773438 16 C 31.84375 16.738281 29.800781 19.429688 29.683594 22.699219 C 29.671875 23.039062 29.566406 23.398438 29.394531 23.761719 C 25.953125 21.050781 22.585938 19.5 20.3125 19.519531 C 19.371094 19.546875 18.617188 19.835938 18.070312 20.378906 C 17.527344 20.921875 17.238281 21.679688 17.210938 22.621094 C 17.160156 24.503906 18.183594 27.035156 19.96875 29.710938 C 18.40625 30.019531 16.964844 30.75 15.84375 31.875 C 12.679688 35.035156 12.679688 40.179688 15.84375 43.34375 C 17.421875 44.921875 19.5 45.714844 21.578125 45.714844 C 23.652344 45.714844 25.730469 44.921875 27.3125 43.34375 C 28.433594 42.21875 29.167969 40.777344 29.472656 39.214844 C 32.085938 40.957031 34.558594 41.972656 36.425781 41.972656 C 36.472656 41.972656 36.519531 41.972656 36.566406 41.972656 C 37.507812 41.949219 38.261719 41.660156 38.804688 41.113281 C 39.351562 40.570312 39.640625 39.816406 39.664062 38.875 C 39.726562 36.59375 38.140625 33.234375 35.425781 29.792969 C 35.785156 29.621094 36.144531 29.511719 36.484375 29.5 C 39.753906 29.386719 42.449219 27.339844 43.1875 24.410156 C 43.796875 21.988281 43.128906 19.511719 41.398438 17.785156 Z M 26.429688 42.457031 C 23.753906 45.132812 19.402344 45.132812 16.726562 42.457031 C 14.050781 39.78125 14.050781 35.429688 16.726562 32.753906 C 17.804688 31.675781 19.230469 30.996094 20.761719 30.820312 C 21.050781 31.214844 21.351562 31.605469 21.671875 32 C 18.558594 31.914062 15.964844 34.480469 15.964844 37.605469 C 15.964844 40.699219 18.484375 43.21875 21.578125 43.21875 C 24.675781 43.21875 27.191406 40.699219 27.191406 37.605469 C 27.191406 37.578125 27.183594 37.546875 27.183594 37.515625 C 27.578125 37.835938 27.96875 38.132812 28.363281 38.421875 C 28.1875 39.957031 27.507812 41.378906 26.429688 42.457031 Z M 25.71875 36.273438 C 25.871094 36.730469 25.945312 37.167969 25.945312 37.605469 C 25.945312 40.011719 23.984375 41.972656 21.578125 41.972656 C 19.171875 41.972656 17.214844 40.011719 17.214844 37.605469 C 17.214844 35.199219 19.171875 33.238281 21.578125 33.238281 C 22.015625 33.238281 22.453125 33.3125 22.914062 33.464844 C 23.347656 33.949219 23.800781 34.429688 24.277344 34.90625 C 24.277344 34.90625 24.277344 34.90625 24.277344 34.910156 C 24.753906 35.382812 25.234375 35.835938 25.71875 36.273438 Z M 38.417969 38.835938 C 38.402344 39.449219 38.234375 39.917969 37.921875 40.230469 C 37.613281 40.539062 37.144531 40.707031 36.53125 40.722656 C 34.746094 40.78125 32.136719 39.605469 29.398438 37.636719 C 29.390625 37.628906 29.386719 37.621094 29.378906 37.613281 C 28.683594 37.113281 28.003906 36.578125 27.335938 36.019531 C 27.265625 35.957031 27.191406 35.898438 27.117188 35.832031 C 26.445312 35.257812 25.789062 34.65625 25.160156 34.027344 C 24.527344 33.394531 23.925781 32.734375 23.347656 32.0625 C 23.289062 31.992188 23.234375 31.925781 23.175781 31.855469 C 22.613281 31.1875 22.074219 30.503906 21.570312 29.804688 C 21.566406 29.796875 21.554688 29.796875 21.550781 29.789062 C 19.585938 27.054688 18.414062 24.453125 18.460938 22.65625 C 18.476562 22.042969 18.644531 21.574219 18.957031 21.261719 C 19.265625 20.949219 19.734375 20.785156 20.347656 20.765625 C 22.347656 20.691406 25.515625 22.261719 28.726562 24.820312 C 28.214844 25.480469 27.5625 26.105469 26.929688 26.605469 C 26.257812 27.140625 26.042969 28.097656 26.421875 28.882812 C 26.734375 29.527344 27.261719 30.449219 28 31.1875 C 28.734375 31.921875 29.65625 32.449219 30.304688 32.761719 C 30.5625 32.890625 30.839844 32.949219 31.117188 32.949219 C 31.675781 32.949219 32.21875 32.703125 32.578125 32.253906 C 33.078125 31.625 33.707031 30.972656 34.367188 30.457031 C 36.921875 33.671875 38.472656 36.847656 38.417969 38.835938 Z M 41.976562 24.105469 C 41.375 26.488281 39.148438 28.15625 36.441406 28.253906 C 34.265625 28.328125 32.1875 30.742188 31.601562 31.476562 C 31.425781 31.699219 31.109375 31.769531 30.847656 31.640625 C 30.289062 31.371094 29.492188 30.917969 28.878906 30.304688 C 28.269531 29.691406 27.816406 28.894531 27.542969 28.335938 C 27.417969 28.074219 27.484375 27.757812 27.707031 27.582031 C 28.445312 26.996094 30.855469 24.917969 30.933594 22.746094 C 31.027344 20.035156 32.695312 17.808594 35.078125 17.210938 C 35.566406 17.085938 36.054688 17.027344 36.535156 17.027344 C 38.027344 17.027344 39.449219 17.601562 40.515625 18.667969 C 41.929688 20.082031 42.476562 22.113281 41.976562 24.105469 Z M 41.976562 24.105469 " fill-opacity="1" fill-rule="nonzero"/><g clip-path="url(#bf08a02fde)"><g clip-path="url(#5c734dcba6)"><path fill="#e4e4e4" d="M 0 0.0585938 L 56.878906 0.0585938 L 56.878906 56.941406 L 0 56.941406 Z M 0 0.0585938 " fill-opacity="1" fill-rule="nonzero"/></g></g><g clip-path="url(#91c76a63ed)"><path fill="#000000" d="M 38.113281 26.09375 C 37.695312 25.976562 37.253906 25.859375 36.800781 25.75 C 36.921875 25.429688 36.980469 25.101562 36.980469 24.761719 C 36.980469 23.214844 35.703125 21.898438 34.007812 21.695312 C 33.179688 21.597656 32.332031 21.515625 31.480469 21.457031 C 31.308594 19.753906 30.441406 18.792969 29.738281 18.285156 C 28.960938 17.722656 28.230469 17.582031 28.199219 17.578125 C 28.15625 17.566406 28.117188 17.582031 28.089844 17.613281 C 28.058594 17.644531 28.050781 17.683594 28.0625 17.726562 C 28.238281 18.378906 28.164062 18.980469 27.839844 19.515625 C 26.945312 20.972656 24.46875 21.492188 24.445312 21.5 C 23.800781 21.550781 23.167969 21.613281 22.566406 21.6875 C 20.875 21.890625 19.601562 23.207031 19.601562 24.75 L 19.601562 24.777344 C 19.601562 25.113281 19.660156 25.4375 19.777344 25.753906 C 19.324219 25.863281 18.882812 25.976562 18.464844 26.09375 C 17.640625 26.328125 17.0625 27.191406 17.0625 28.1875 C 17.0625 29.375 17.882812 30.339844 18.890625 30.339844 L 19.628906 30.339844 L 21.714844 37.484375 C 21.871094 38.003906 22.164062 38.425781 22.59375 38.75 C 23.027344 39.074219 23.515625 39.238281 24.054688 39.242188 L 32.527344 39.242188 C 32.789062 39.242188 33.046875 39.199219 33.296875 39.117188 C 33.546875 39.03125 33.777344 38.910156 33.988281 38.753906 C 34.195312 38.59375 34.378906 38.40625 34.527344 38.1875 C 34.675781 37.972656 34.789062 37.738281 34.863281 37.484375 L 36.949219 30.339844 L 37.691406 30.339844 C 38.699219 30.339844 39.519531 29.375 39.519531 28.1875 C 39.515625 27.191406 38.9375 26.328125 38.113281 26.09375 Z M 34.632812 37.417969 C 34.496094 37.886719 34.234375 38.269531 33.84375 38.5625 C 33.453125 38.855469 33.011719 39 32.527344 39 L 24.050781 39 C 23.566406 39 23.128906 38.851562 22.738281 38.558594 C 22.347656 38.265625 22.082031 37.886719 21.945312 37.417969 L 19.878906 30.339844 L 36.703125 30.339844 Z M 37.691406 30.101562 L 18.890625 30.101562 C 18.015625 30.101562 17.300781 29.242188 17.300781 28.1875 C 17.300781 27.296875 17.808594 26.53125 18.53125 26.324219 C 18.96875 26.203125 19.429688 26.082031 19.902344 25.96875 C 20.054688 26.109375 20.558594 26.53125 21.449219 26.917969 C 22.230469 27.257812 23.433594 27.609375 25.058594 27.609375 C 25.492188 27.609375 25.925781 27.582031 26.359375 27.535156 C 26.4375 27.527344 26.472656 27.480469 26.464844 27.402344 C 26.457031 27.324219 26.410156 27.289062 26.332031 27.296875 C 24.101562 27.542969 22.503906 27.109375 21.558594 26.703125 C 20.632812 26.304688 20.132812 25.855469 20.039062 25.765625 C 19.90625 25.449219 19.839844 25.121094 19.839844 24.777344 L 19.839844 24.75 C 19.839844 23.328125 21.023438 22.113281 22.59375 21.925781 C 23.203125 21.851562 23.839844 21.785156 24.488281 21.734375 C 24.503906 21.734375 24.515625 21.730469 24.527344 21.726562 C 24.855469 21.652344 27.144531 21.105469 28.042969 19.640625 C 28.371094 19.101562 28.472656 18.503906 28.339844 17.859375 C 28.796875 17.996094 29.21875 18.207031 29.609375 18.484375 C 30.585938 19.195312 31.136719 20.238281 31.253906 21.578125 C 31.261719 22.109375 31.144531 23.542969 30.53125 23.851562 C 30.453125 23.882812 30.433594 23.9375 30.472656 24.015625 C 30.507812 24.089844 30.5625 24.105469 30.636719 24.066406 C 31.394531 23.683594 31.480469 22.160156 31.492188 21.703125 C 32.328125 21.761719 33.164062 21.835938 33.980469 21.933594 C 35.554688 22.125 36.742188 23.339844 36.742188 24.761719 C 36.742188 25.105469 36.675781 25.433594 36.542969 25.75 C 36.316406 25.859375 35.09375 26.433594 33.609375 26.542969 C 33.53125 26.546875 33.492188 26.589844 33.492188 26.667969 C 33.496094 26.746094 33.539062 26.785156 33.617188 26.785156 L 33.625 26.785156 C 35.175781 26.667969 36.414062 26.082031 36.652344 25.960938 C 37.132812 26.078125 37.605469 26.203125 38.050781 26.328125 C 38.773438 26.53125 39.277344 27.296875 39.277344 28.191406 C 39.277344 29.242188 38.566406 30.101562 37.691406 30.101562 Z M 23.277344 32.378906 C 23.265625 32.304688 23.296875 32.261719 23.367188 32.242188 C 23.4375 32.226562 23.484375 32.253906 23.507812 32.320312 L 24.40625 36.0625 C 24.425781 36.140625 24.394531 36.1875 24.320312 36.207031 C 24.308594 36.207031 24.300781 36.210938 24.289062 36.210938 C 24.226562 36.210938 24.1875 36.179688 24.175781 36.117188 Z M 28.171875 36.089844 L 28.171875 32.351562 C 28.175781 32.273438 28.214844 32.238281 28.289062 32.238281 C 28.367188 32.238281 28.40625 32.273438 28.410156 32.351562 L 28.410156 36.089844 C 28.40625 36.164062 28.367188 36.203125 28.289062 36.203125 C 28.214844 36.203125 28.175781 36.164062 28.171875 36.089844 Z M 32.203125 36.0625 L 33.101562 32.320312 C 33.117188 32.238281 33.167969 32.210938 33.246094 32.230469 C 33.328125 32.25 33.355469 32.296875 33.332031 32.378906 L 32.433594 36.117188 C 32.410156 36.1875 32.363281 36.214844 32.292969 36.195312 C 32.222656 36.179688 32.191406 36.132812 32.203125 36.0625 Z M 32.203125 36.0625 " fill-opacity="1" fill-rule="nonzero"/></g></svg>